/* XPM */
static char *f858ce27905c490de38ccb9ba4bb58edZ3b830hjWyQw03f8[] = {
/* columns rows colors chars-per-pixel */
"64 64 228 2 ",
"   c #1E7FD4",
".  c #1A7FD9",
"X  c #207FD9",
"o  c #1D89D6",
"O  c #1D84DC",
"+  c #1D8BDD",
"@  c #1F86D1",
"#  c #2483CF",
"$  c #2B85CE",
"%  c #3A8BCD",
"&  c #2385D4",
"*  c #2A86D4",
"=  c #258BD6",
"-  c #2B8BD5",
";  c #2486DA",
":  c #2B86DC",
">  c #258ADC",
",  c #2C8DDD",
"<  c #3187D3",
"1  c #328CD5",
"2  c #398FD4",
"3  c #328CDC",
"4  c #388EDD",
"5  c #3186D9",
"6  c #2D91D5",
"7  c #2691DD",
"8  c #2C91DC",
"9  c #3592D5",
"0  c #3994D4",
"q  c #3392DC",
"w  c #3B96DC",
"e  c #3599DB",
"r  c #3D9BDD",
"t  c #1F83E3",
"y  c #1D8BE2",
"u  c #1D8BEC",
"i  c #1E91E8",
"p  c #2485E1",
"a  c #2887E2",
"s  c #258CE2",
"d  c #2B8DE2",
"f  c #258CE9",
"g  c #2C8DEA",
"h  c #2987E9",
"j  c #328DE2",
"k  c #328DEA",
"l  c #2691E3",
"z  c #2C91E3",
"x  c #2691EA",
"c  c #2B91EA",
"v  c #3292E2",
"b  c #3A93E2",
"n  c #379CE1",
"m  c #3C9AE1",
"M  c #3292EB",
"N  c #3B9BE9",
"B  c #2D94F2",
"V  c #3CA2EC",
"C  c #4493D5",
"Z  c #4295DC",
"A  c #439BDD",
"S  c #4A9BDC",
"D  c #4A96D4",
"F  c #559DDA",
"G  c #49A6D6",
"H  c #42A0DE",
"J  c #4CA1DE",
"K  c #4BA9DA",
"L  c #5AA3DB",
"P  c #53A8DE",
"I  c #5EB3D2",
"U  c #67AEDC",
"Y  c #61B4DE",
"T  c #4A96E2",
"R  c #429CE3",
"E  c #4C9EE3",
"W  c #449EEB",
"Q  c #469AEA",
"!  c #409FF1",
"~  c #43A2E2",
"^  c #4BA3E3",
"/  c #44A2EC",
"(  c #4EA6E9",
")  c #4CABEB",
"_  c #4FA8E4",
"`  c #53A6E4",
"'  c #53A9E6",
"]  c #5BADE4",
"[  c #53A7EB",
"{  c #5BAEEA",
"}  c #5AA8E8",
"|  c #5DB4E5",
" . c #5CB2EC",
".. c #5FBCE5",
"X. c #4CA5F1",
"o. c #4CA9F6",
"O. c #57AEF2",
"+. c #54B0F1",
"@. c #65AEE7",
"#. c #64ADEC",
"$. c #69ABE5",
"%. c #64B3E4",
"&. c #6EB4E4",
"*. c #66B9E7",
"=. c #6ABCE2",
"-. c #63B5EC",
";. c #6AB6EC",
":. c #64BAEB",
">. c #6BBBEB",
",. c #79B8E5",
"<. c #72BCEC",
"1. c #7CB9E8",
"2. c #74B7E7",
"3. c #65AFF0",
"4. c #63B3F3",
"5. c #6BBBF2",
"6. c #6CB8F8",
"7. c #74BAF2",
"8. c #7CBDF3",
"9. c #74C9DE",
"0. c #6DC0EC",
"q. c #6FC1E6",
"w. c #7AC1ED",
"e. c #77C8EA",
"r. c #76C3F4",
"t. c #7AC4F3",
"y. c #7ECBF4",
"u. c #7DCBFC",
"i. c #76C6FA",
"p. c #8CBEE4",
"a. c #80B9E6",
"s. c #81BFF0",
"d. c #84CAEB",
"f. c #8BCEEC",
"g. c #81C0EB",
"h. c #91C3ED",
"j. c #95CCEE",
"k. c #9CCEED",
"l. c #92CCE4",
"z. c #8DD5ED",
"x. c #8AD6EA",
"c. c #93D3EE",
"v. c #9AD4EE",
"b. c #94D9EE",
"n. c #9EDBEE",
"m. c #87C7F2",
"M. c #84CCF3",
"N. c #8BCCF4",
"B. c #87C7F7",
"V. c #92CCF3",
"C. c #93CCFC",
"Z. c #96CBF3",
"A. c #82D1F2",
"S. c #8CD3F5",
"D. c #85D3FF",
"F. c #8CD4FB",
"G. c #8DD8F7",
"H. c #94D5F4",
"J. c #9AD4F2",
"K. c #94D9F4",
"L. c #9ADAF5",
"P. c #95D6FA",
"I. c #9CD6FC",
"U. c #94D9FB",
"Y. c #9CDBFC",
"T. c #A5D4EC",
"R. c #A5DBEC",
"E. c #B1DDED",
"W. c #A3CEF4",
"Q. c #A2D4F4",
"!. c #A3DBF5",
"~. c #ABDCF3",
"^. c #A3D5F9",
"/. c #A2DCFB",
"(. c #AADDFC",
"). c #ABD6FB",
"_. c #B3DDF4",
"`. c #B1DDFB",
"'. c #BADFF9",
"]. c #9CE2FC",
"[. c #ACE1F6",
"{. c #A4E2FC",
"}. c #ACE3FD",
"|. c #ACE8FD",
" X c #A5E4F8",
".X c #B3E3F5",
"XX c #BCE4F5",
"oX c #B4E4FD",
"OX c #BCE5FE",
"+X c #B5EAFE",
"@X c #BDEAFE",
"#X c #BCF2FF",
"$X c #B6F2FD",
"%X c #C6DDED",
"&X c #C5DDF9",
"*X c #C3E5EF",
"=X c #D3E6EC",
"-X c #C4E5F4",
";X c #CAE7F5",
":X c #C3EAF6",
">X c #CBEBF6",
",X c #C1E5FF",
"<X c #C3E5FD",
"1X c #C9E6FD",
"2X c #C4EAFE",
"3X c #CAEBFE",
"4X c #D3EEFE",
"5X c #DCEEFC",
"6X c #D8EBF3",
"7X c #C4F0F3",
"8X c #C4F1FF",
"9X c #CCF2FD",
"0X c #C8F0F0",
"qX c #D1F3F6",
"wX c #D3F2FF",
"eX c #DDF4FE",
"rX c #D4F9FE",
"tX c #DBFAFF",
"yX c #DEF2F0",
"uX c #E1EFF3",
"iX c #E4F6F3",
"pX c #E3F4FD",
"aX c #E3FAFF",
"sX c #EBFBFE",
"dX c #ECF7F8",
"fX c #F2FAF4",
"gX c #F1F4FD",
"hX c #F3FEFD",
/* pixels */
"q f s 1 - s , f k , , j , , s , , , , , , , , , , , , , , , , , , , , , , , , , z , > z s , d d , j d , - 3 - 3 , , , , , , , , ",
"- s , 3 s z , - > s z 3 3 3 , 7 , , , , , , , , , , , , , , , , , , , , , , , , - 3 3 , j d , , , , , s s s s f , , , , , , , , ",
", d 3 , s , 3 3 1 j s ; s , - , , , , , , , , , , , , , , , , , , , , , , , , , s s s , - - - , 3 , - , , , , , , , , , , , , , ",
"d , , , s , 3 d , s , 6 z , 8 s , , , , , , , , , , , , , , , , , , , , , , , , 3 - , , > s s s > , , , , , , 3 , , , , , , , , ",
"d - s , - 3 s s s & ; p O p j < , , , , , , , , , , , , , , , , , , , , , , , , , , , , s , 3 - d 3 3 3 , s , - , , , , , , , , ",
", , l , 1 v > q S B.h.h.m.-.j > , , , , , , , , , , , , , , , , , , , , , , , , s z > d v , > s f > - - > s v 3 , , , , , , , , ",
", d s , 3 g - ,.tXtXqXqX7X|.t.0 , , , , , d , , , , , , , , , , , , , , , , , , 3 3 , z = - R Z R Z A R 8 > s s , , , , , , , , ",
", , > , , u 9 2XeX3XoXOX2X,XY.{ > - - , , , , , , , , , , , , , , , , , , , , , 1 d f f $ 1.tXuXeX4X4XoXt.R , , , , , , , , , , ",
"s z > : E R 6.3XoX@X,X<X,X@X}.f.R m n N d - - z , , , , , , , , - g > l d 5 c 1 k 3 1 c 7.dXeX1X3X@X@X8X.XK.{ p s 3 3 - 3 , d , ",
"- 6 - 2.eX;XOX~.!.oX@X,X<X@XoX}.~.}.oX{.<.3 d , , , , , , , , , g , d d , 6 s + + > O Z eXrX.X+X3X3X<X,X@X!.H.%., > ; 8 s , - z ",
"3 , ; B.rX:X+X@XOX@X,X@XoX!.J.c.!.K.c.T.+X6., g , , , , , , , , > - 3 - , s 4 w <.W.e 5./.OX1X<X@X@X2X<X<X@X/.N.Z b Q 1 > > , > ",
", s d j {  .4.U -.| | -.-. .' ` ` K ) ' ] ^ - 1 , , , , , , , , , d , 9 d b ^.8X4XgX5XY.N.@XXX$X2X2X_.}.}.}.@X<XOX|.oXa.- > 4 d ",
"- s g h & = ; , > > > > > ; ; s f ; : : & f B , , , , , , , , , , j s , p ] tX=X3X2X4X|.c.@XOXOX(./.P.M.S.f.}.2XXX@X3XoXq c * j ",
", 8 v - 6 z z f 3 3 j 3 - , , z > 6 , , n , = > , , , , , , , , , - , g > w C.OX}..XL.J.|.~.G.c.H.H.P.K.L.Y.P.P.L.z.x.A.3 s : 8 ",
"s 8 - , > z 3 , > , , , , , , - 4 s f t p , - j , , , , , , , , g g , > 8 , R q.t.e.9.e.l.F.H.F.K.u._ ( ^ ( [ ^ X.~ H r , g z > ",
"j s 3 j s , : 8 d d d , , , , 8 - p 2 w.%.N 7 , , , , , , , , , , - - l s - > 3 q z q L -.-.Y %.%.A > ; = > > > > , : - 3 , , , ",
"d q s , , 3 - l > z , - s z < f r S W.sX0XD.n > , z = - h d , j , , , , , , , , , s s d , ; , s s , 3 3 - , s g , , , , , , , , ",
", > , , s d v , 3 s , j v - ; J <XwX3XOX<X}.] j d , , - 3 , , > , , , , , , d z , d > , 6 q q , , s d , , d , , , , , , , , , , ",
"d s , , ; z , , : > z p w m ` >X4X<XOX+X@X2XY.^ s n , g , - , 8 , , , , , , , , 3 j , > , , , , 2 3 , - , , - , , , , , , , , , ",
"s j - v , - s 8 ` G o ' 2X5X4X@X2XXX<X3XXXXX}.Y I A.-.* s j , , , , , , , , , , - , d g c g d , > s s s z d , - , , , , , , , , ",
", 3 - s j c ; 7.XXd.*.T.9X}.<X=XOX1X,XOXOX@XoX~.{.J.P. .s g , > d , , , , , , , l > , , - - , - d , - 3 - , d s , , , , , , , , ",
"s , z s s s % %X4X~.@XoXoX3XOX2X,X@X@X3X,X@X.XoX1X3X~.G.r > , 7 , , , s s , , , s - 3 1 , z z s , , , 3 - , d s , , , , , , , , ",
"c s s s , w |.wX1XoX(.I.(.2X,X,X<X#X@X@XoX|.J.U.-X,XXX$XM.< k 3 , , d d s s , , j 3 1 - z s ; 3 - v s > s s , 3 , , , , , , , , ",
"- 6 4 , & 1.T.4.:.2.:.>.&.5.>.>.>.;.5.7.;.5.5.<.5.5.7.2.>.q f 6 , , , ; & ; > , > z s s s 1 L I.<XOXs.S q > > , , , , , , , , , ",
", , , , , - > ; > > > > > > > > > > > > ; ; , > ; s > ; > - 3 s > z - t.p.B.Q & : g 1 7 y L tX3X7X2X1X8Xf.' 8 > s , - s , , z - ",
", , , , , , , , s s s s s s d d d d d , v z , d 4 , , 3 z l 8 3 x * h.aXsXaX`.u.y.Z : s   ).eXOX2X3X&X3X9X!.{ : s z 1 3 s z & z ",
", , , , , , , , , , , , , , , , , , , , , , , , s - - s , * - x , 8.2XOX<X-X2X@XL.D.r [ r.1X>X+XOX@XOX@X<XR.r.k ; > , j g - q s ",
", , , , , , , , , , , , , , , , , d , v , - v - - W R ;.<X&X,.- | J.[.@X8XOX@X<X<XY.z./.2X;X4XoX1XXX@X@X@XoXY.] T E q o 6 - , j ",
", , , , , , , , , , , , , , , , - , , , , , - , &.tXyX2XwXiXrXI.m.S.}.<XOX3X<X,X'.oX@XOX<X@X,X,X,X@X@X@X,X,X@X@X+X~.Y.Z : s z * ",
", , , , , , , , , , , , , , , , , , v > v v & o.pXeXtX1X<X2XOX3X@X(.OX3X1X3XXX<X[.XX2X,X|.OX@X:X+XoX'.XX3X@X~.+X,X_.3X(.1 7 8 v ",
", , , , , , , , , , , , , , , , , , z > , , - X.N.Y.~.XX.X(.oX~.|._.oXoXE.[.|.{.K.Q.Q.R.].!.!.!.n.!.^./.!.K.d.M.f.{.!.m.3 f d h ",
", , , , , , , , , , , , , , , , , , , z , , , * R ~ R N V R S R r W R n V ~ A R R / e n w q r w w m e e e r r r r 0 e s d , , 3 ",
"g < 3 f s d , , j , > z - 7 z - > , g - , d - , s > > > , : d > > > > > > > > > f * , s j s s , = , d s = 1 : s , , , , , , , , ",
"> > , - , , , d - q 3 - M j , s v - - 8 8 s s g , - , 3 3 , > z , , , , , , , , 8 , j , , z > q 3 d - , 8 s d 4 , , , , , , , , ",
", l , 3 s s 3 g y & ; O ; : j , s z , , s g , - z s g d , 8 8 , , , , , , , , , , d d , 8 > , - s s s , - , , s , , , , , , , , ",
"3 d , - s v , + E Z.Z.N.k.$.. s s & * 3 d d q , , , , s s ; , 1 , , , , , , , , : q s g * 4 j d q 3 3 - , f ; n , , , , , , , , ",
"d d h : 3 8 & E 1XhXsXaXsX(.) R P #.} 3 z - > s - 3 q * j s , , , , , , , , , , B = i , k.3X3X3X>X@.; s - v z - , , , , , , , , ",
", , s g d O C 1XsX6X>X<X,X!.z./.>XtX(.2 f f , 6 s O z , , g g > , , , , , , , , < < , ` aXfXpXdXaX+X^ : d - , > , , , , , , , , ",
", - , l f R p.hX9XXX<X2X3X@XXX@XOXXX+X{ v @.^.:X5.A & c s - , z , , , , , d , , s M ; i.OX;X<X2X3X@X2.^ u.P.t.! , , , , , , , , ",
"f j 3 - 9 J.:X}.@X<X,X}.~.,X,X,X@X1X@Xw.y.+X3XeXfX3XD > , 6 , , , , , , , , , , , q :.S.I.OXXXOX1X@X|.c.oX:X2X'.d d , , , , , , ",
", s z * { F.m.F.H.U.U.S.L.oX@X@X3X3X`.H.Y.@X<X@X5XrX(.j.t.z = 1 g 1 , , 3 ; m oX:XXX+XK.f.oX3X2X@X@XOX~.@XOX,X2X7.  u g 3 , s 3 ",
"d s s 1 >.].c.b.P.S.P.P.H.j.!.2XXX2XOX{.oX<X<XOX@X.X,X:X(.4 l f , s - , f C -XhXgXeXXX`.(.oX@X<XOX,X@X@X@XOX,XwXQ.g. .$ , j , , ",
", , s 3 ' r.>.>.=.=.=.=.e.U.L.c.b.L.J.L.|.@XoX{.Y.L./.!.m.3 > g - z z s m @XhXuX@Xv.I.^.@X@X2X<X2XXX@XoXQ.k.(.oXXX8X{.A z d , , ",
"1 , s > - , - > h d : - n +. .] ~ _ ' _ ] #.#.{ @.{ O. .w z 8 3 g - g p <.@X-XoXb.H.F.S.v.@X@XOXXX,XoXv.P.S.M.A.M.d.t.r s s q , ",
"3 , s s , 8 8 s - , 8 s s s ; a > > > ; = & ; > ; , > & , s = , + b 3 d Z -...>.=.u.@.<.S.H.L.Y././.L.F.u._ 9 w e 9 2 * z s - 3 ",
", d d d , , , - d d d - , 8 , , 3 , , 8 8 8 , , z , s , , d d j 8 = s d ; 7 7 , , 8 & q  .G K P  . .4.O.1 - g s ; s d 1 q , > j ",
", , d j d , j j , - , 3 3 , - , - j j j , - , j - q , s s j : - 3 > s s 8 = g f 3 s z s & , > > p a ; , - q - 3 q s , - - , z , ",
", , , , , 8 , , , , , , , d , d 8 > , , , , 8 , s , , d , , z s d j 3 - g , - 3 , - , z s j 3 , 8 , , , , s s s - , , s z s d - ",
", , , , , , , , , , - q > : j > - , s d z : 3 , , - 8 3 : l > > s g f , j d - g 3 , 3 , , - 3 s , , , , , , , , , , , , , , , , ",
", , , , , , , , - s s - - q , z g , 3 - 3 , 8 , z s - 3 x l C A D , , q j s f 1 i - 8 x , g f , , , , , , , , , , , , , , , , , ",
", , , , , , , , 3 , d s s 8 - 3 , > > > y y > g : s 8 ; & V.pXpX9X} ; + s 3 = v l 0 3 c , - 4 d , , , , , , , , , , , , , , , , ",
", , , , , , , , d - v f s - v s 1 c F ).`._.h.q 3 3 q 4.OXiXpX3X4X@X] m 8 > 3 - f & , - 3 g s , , , , , , , , , , , , , , , , , ",
", , , , , , , , s - d g q 3 d y y # @XfXaX9X2X;.y * ^.sXsXwX@X+XOX3X.X|.7.W , s E 1.T O 8 z l - , , , , , , , , , , , , , , , , ",
", , , , , , , , z , 3 , = f * ,._.T.2X3X-X<X|.%.@ , (.sX4X;X3X*X<XOX9X2XR.y.; / ,XsX3Xt.8 t # v - , , , , , , , , , , , , , , , ",
", , , , , , , , , 1 3 > 8 / &.tXsXpX3X@X2X@XU.q.r ( OX-X@X@X,X@X-XOX<X,X}.U.%.V.;X.X4XhXk.3.;.g , , , , , , , , , , , , , , , , ",
", , , , , , , , g 1 s s 7.(.oX3X>X@X@X,X,X@XQ.U.F.C.XX2X,X1X@X<X@XXX+X@X,XOX(. X@X@X,X;XtXgXfXQ.v v , , , , , , , , , , , , , , ",
", , , , , , , , d > 9 j.3X,XOXOX2X,X,X,X,X,X,XXXXX3X@X}.(.`.OX,X,X,X<X<X<X,XoX}.,X,X2X2X<X<X3XrXeX3XF s , , s 3 , , , , , , , , ",
", , , , , , , , 3 > ^ |.OXoX@XXX@X@X@X@X@X@X@XOX@X}./.H.H.P././. X!.!.!.!.Y.J.J.oXOXOXOXOXOXoX_.E.+X6.> , , M * , , , , , , , , ",
", , , , , , , , 3 > m u.V.H.S.c.c.c.c.c.c.H.H.c.H.f.x.A.e.0.0.*.>.:.| | | >.M.U.K.L.L.K.L.Y.K.f.F.r.1 s , v > 3 , , , , , , , , ",
", , , , , , , , , s , 0 J ^ A ^ H A H A H H H H S A ^ ^ q : , ; : d > > ; - R [ [ ( ( ( ( ( ( ( A ~ , s - , , d , , , , , , , , ",
", , , , , , , , , > z > - > > > s s s s , , , , s > - - - , z z 6 6 , z z - , - ; ; ; > > ; ; > , = s d n , , > , , , , , , , , ",
", , , , , , , , j , , v , z d , , , , , , , , , s z , , , d , - , , , d j d g s , , , , , , , , d z d j = , , z , , , , , , , , ",
", , , , , , , , , j - 3 , - - 8 s s s s d d d d - , , , s d d d d d d , - - - , , , , , , j j , , s d , s , 3 , , , , , , , , , ",
", , , , , , , , > 8 , - z , z , , , , , , , , , j , , , , , , , , , 8 , , z d d , s s , , , , , - , , , l , 3 , , , , , , , , , "
};
