/* XPM */
static char *d5c6148450db4ad7a65478a9f6aaba91a23tsjfkPCON5zUu[] = {
/* columns rows colors chars-per-pixel */
"64 64 253 2 ",
"   c #010202",
".  c #0B0302",
"X  c #04020A",
"o  c #08070A",
"O  c #160603",
"+  c #100D0F",
"@  c #343335",
"#  c #341A10",
"$  c #74392A",
"%  c #4D2C1D",
"&  c #774431",
"*  c #3E3F41",
"=  c #4B4747",
"-  c #525355",
";  c #6F6E6E",
":  c #55605D",
">  c #973F24",
",  c #954D2C",
"<  c #9B5739",
"1  c #964B2D",
"2  c #A4553A",
"3  c #A8583A",
"4  c #B85A38",
"5  c #A9582C",
"6  c #B86439",
"7  c #B36E32",
"8  c #B66C17",
"9  c #C3633D",
"0  c #C9683B",
"q  c #DC763C",
"w  c #CD6935",
"e  c #E5763B",
"r  c #E36533",
"t  c #C67D14",
"y  c #A95C43",
"u  c #B55C47",
"i  c #AF6443",
"p  c #BC6444",
"a  c #B96547",
"s  c #B56D55",
"d  c #B16B4F",
"f  c #B57769",
"g  c #9D6E5E",
"h  c #CB6D43",
"j  c #C66B46",
"k  c #D86D46",
"l  c #CA7449",
"z  c #DC7445",
"x  c #DC7A45",
"c  c #D5744C",
"v  c #DC754B",
"b  c #D67B4C",
"n  c #DC7B4C",
"m  c #D57445",
"M  c #CB7757",
"N  c #D47553",
"B  c #DC7653",
"V  c #DC7B53",
"C  c #DC7C5A",
"Z  c #D77956",
"A  c #D56F51",
"S  c #E16D49",
"D  c #E27444",
"F  c #E37B44",
"G  c #E2754C",
"H  c #E37B4C",
"J  c #EA7C4C",
"K  c #EB7846",
"L  c #E37553",
"P  c #E37B53",
"I  c #EA7B54",
"U  c #E27C5A",
"Y  c #E77958",
"T  c #EF7852",
"R  c #D87B66",
"E  c #C77970",
"W  c #E47B62",
"Q  c #E15E42",
"!  c #3C8A5B",
"~  c #3E9055",
"^  c #3D8B63",
"/  c #398A64",
"(  c #3A9163",
")  c #448C5B",
"_  c #47945E",
"`  c #438D64",
"'  c #438E6A",
"]  c #488D69",
"[  c #449265",
"{  c #4A9365",
"}  c #45926B",
"|  c #4B946B",
" . c #4C996A",
".. c #529B6D",
"X. c #529868",
"o. c #478D76",
"O. c #4B9773",
"+. c #519C73",
"@. c #57987C",
"#. c #5F8D70",
"$. c #6B8F76",
"%. c #59A276",
"&. c #52A16D",
"*. c #64A27B",
"=. c #CA8C27",
"-. c #E6A13A",
";. c #B78873",
":. c #81A07E",
">. c #80817C",
",. c #D9844B",
"<. c #DB835C",
"1. c #D88154",
"2. c #DE9143",
"3. c #E5844A",
"4. c #E38253",
"5. c #E4835B",
"6. c #EB8457",
"7. c #E99352",
"8. c #EAAF4F",
"9. c #D98568",
"0. c #CB8C76",
"q. c #E68767",
"w. c #E79969",
"e. c #E49A77",
"r. c #F08872",
"t. c #EAAF6C",
"y. c #DABF78",
"u. c #F8CA58",
"i. c #EDC259",
"p. c #F6D779",
"a. c #F3D06F",
"s. c #8D748D",
"d. c #B27F8A",
"f. c #4E9184",
"g. c #539489",
"h. c #59959A",
"j. c #508F89",
"k. c #659E89",
"l. c #609F97",
"z. c #69A689",
"x. c #67A595",
"c. c #75AC97",
"v. c #73AB94",
"b. c #659CB0",
"n. c #77B2A2",
"m. c #579AA0",
"M. c #7495D4",
"N. c #72A0D6",
"B. c #759CF6",
"V. c #7B9EF6",
"C. c #7C9DFD",
"Z. c #7799FA",
"A. c #6E92ED",
"S. c #7DA3F5",
"D. c #75A5FE",
"F. c #7DA3FD",
"G. c #7BA9FE",
"H. c #76A8FA",
"J. c #72A5FA",
"K. c #8A8D86",
"L. c #B9878C",
"P. c #B88A97",
"I. c #AC8F95",
"U. c #9D96BE",
"Y. c #A19BA2",
"T. c #A493B6",
"R. c #AF90AE",
"E. c #83B4A1",
"W. c #C58987",
"Q. c #CC958A",
"!. c #E79B8C",
"~. c #D7A992",
"^. c #E6A786",
"/. c #F6AA8B",
"(. c #EEAF95",
"). c #D0B4B3",
"_. c #E4B5AA",
"`. c #EBB4A7",
"'. c #F9DA86",
"]. c #F9DB94",
"[. c #FDC69C",
"{. c #FAE48A",
"}. c #FBE699",
"|. c #DBC8B6",
" X c #E8CCBA",
".X c #F6C9B6",
"XX c #F9E5AE",
"oX c #9B94C8",
"OX c #969AD8",
"+X c #8D9BDA",
"@X c #A596C5",
"#X c #8D9DEB",
"$X c #889BE8",
"%X c #939BE3",
"&X c #839EFE",
"*X c #8A9EFC",
"=X c #859BF8",
"-X c #83A3F5",
";X c #82A2FE",
":X c #8AA2FE",
">X c #83A9FE",
",X c #8BABFE",
"<X c #88A4F5",
"1X c #93ADFD",
"2X c #98A9FB",
"3X c #9BB4FE",
"4X c #9CBAFD",
"5X c #94B3FD",
"6X c #8EA6EB",
"7X c #A6B9FB",
"8X c #A1ADFF",
"9X c #97A3DD",
"0X c #D5B6C6",
"qX c #ADC2FF",
"wX c #B9CBFE",
"eX c #BAD3FF",
"rX c #B9CCEC",
"tX c #DACECA",
"yX c #E5C8C7",
"uX c #F7DAC8",
"iX c #E3D4D8",
"pX c #F6D9D5",
"aX c #E2D0CC",
"sX c #FBE9D7",
"dX c #FDF3DC",
"fX c #FCF1C4",
"gX c #C9D9FF",
"hX c #D3DCFC",
"jX c #D0D4F1",
"kX c #E9D7E5",
"lX c #CFE6FD",
"zX c #D4E2FD",
"xX c #DCE4FE",
"cX c #DDEBFE",
"vX c #DAE8F4",
"bX c #DEEDF4",
"nX c #FDECE6",
"mX c #FCF6EA",
"MX c #E5EBFD",
"NX c #EBEDFE",
"BX c #E7E6F6",
"VX c #F5EDFB",
"CX c #E5F3FC",
"ZX c #ECF2FD",
"AX c #EBF7FB",
"SX c #FCFDF5",
"DX c #F4F4FE",
"FX c #FCF5FD",
"GX c #F5FDFD",
"HX c #FEFEFF",
"JX c #FDFDFD",
"KX c #F7F7F4",
"LX c #E6E6EE",
/* pixels */
";X;XF.>XF.;X-XF.;X;XF.;X;X;X;X;X;XS.:X;X:X&XD.;X;X;X;X;X;X;X;X;X;X;X;X;X;X;X;X;X-X;X:X&X;X:X;X;X;X;X;X;X;X;X;X;X;X;X;X;X;X;X;X;X",
"&X&X&XC.:X:X:XF.F.;X;X;XF.;X;X;X;X;X;XF.F.;X;X;X;X;X;X;X;X;X;X;X;X;X;X;X;X;X;X;X&XF.F.;X;XF.F.;X;X;X;X;X;X;X;X;X;X;X;X;X;X;X;X;X",
";X>XS.-X;X:X;XF.;XF.F.;X;X;X;X;X;X;X-XS.#X;X;X&X;X;X;X;X;X;X;X;X;X;X;X;X;X;X;X;X;X;X:X-X-X;X;X;X;X;X;X;X;X;X;X;X;X;X;X;X;X;X;X;X",
"&XV.F.F.;X;XS.;X;X;XF.;X;X;X;X;XF.>X&XD.;XF.F.&X;X;X;X;X;X;X;X;X;X;X;X;X;X;X;X;X:XF.;XD.D.F.F.:X;X;X;X;X;X;X;X;X;X;X;X;X;X;X;X;X",
"GXzX:XC.F.;X:X&XF.;X;X;XC.;X;X;X:XS.*XF.-X&XF.<X;X;X;X;X;X;X;X;X;X;X;X;X;X;X;X;X:XF.-X:X;X;XF.-X;X;X;X;X;X;X;X;X;X;X;X;X;X;X;X;X",
"JXJXwXC.F.Z.;X>X;X;XV.;X;X;XF.;X;XF.<X*X>X;XF.:X;X;X;X;X;X;X;X;X;X;X;X;X;X;X;X;XD.;X*X;X;X:X;X;X;X;X;X;X;X;X;X;X;X;X;X;X;X;X;X;X",
"HXJXGX4XV.qX:XC.;XF.;X;X;X;X;X;XF.:X;X=XD.F.-XD.;X;X;X;X;X;X;X;X;X;X;X;X;X;X;X;XD.-XF.=XF.G.;XF.;X;X;X;X;X;X;X;X;X;X;X;X;X;X;X;X",
"GXHXJXgX7XSXAX7XV.,X4X;X;XV.>XF.;X>X&X0.T.S.-X;X;X;X;X;X;X;X;X;X;X;X;X;X;X;X;X;XF.-X$XP.R.F.;X=X;X;X;X;X;X;X;X;X;X;X;X;X;X;X;X;X",
"HXHXHXVXDXHXHXHX,XhXHX7XZ.F.:XF.S.;XU.^./.R I.@X%XD.:X-XF.F.S.D.F.;XD.&X:XG.F.oX@XE 9.[.W.$X;X:XF.;X*X:XS.:X&XG.-X&X&X;XF.=X:X;X",
"ZXGXJXHXGXZXZXJXNXFXHXGXZX7XV.>XF.@Xz nXJXw.n K W.OX%XF.D.=XoXoXoXOXD.;XS.+XT.I v 3.uXHX/.f #X;X>X;X;XF.>XV.;XC.J.F.>XS.;X;X;XF.",
"xXZXGXGXMXxXBXGXGXHXJXCXGXZXwXB.+X4.sXJXJXHX!.v b e 0.+XOXP.G n D R 9XoX@XJ B n <.pXSXJXFX/.L.G.S.;X>XF.-X;XC.3X7X:XF.F.:X:XV.;X",
"NXDXDXNXMXNXNXDXZXVXVXNXNXVXZXeX%Xr.JXJXHXHXJX^.N G J F D n C V H Z D K m G L C uXJXJXKXHX[.d.;X&X&XF.F.C.;XqXDXHXMX,XF.S.&X:XF.",
"4X3X3X3X4X4X3X3X4X5X4X4X4X3X4X7X%X<.DXHXFXDXHXDX!.C b H L H Y G x C G C L 4.5.aXGXSXDXJXJX/.d.G.:XC.-X7X7XlXGXHXHXHXeXZ.F.3X:XH.",
"C.C.&X&XC.C.C.C.&XC.F.B.F.F.Z.C.-X9.e.KXVXAXZXvXaXq.b C H n b n U n I x V c ~.kXBXDXNXGX.XL R.D.F.,XxXJXHXGXHXSXSXHXJX7XeXGXgXZ.",
"F.;X>X;XF.F.;X;X:X*X:XF.F.:X:X>XS.#X<.LXZXcXMX~.G N V L Z T C G b x V C H C Z 9.kXCXxXAX`.d.D.;X3XCXSXHXJXJXHXHXJXSXHXSXJXHXSXzX",
";X&X&X:X;X;X;X;XF.F.F.:X:XF.F.&X;X$Xq.BXcXxX`.e C F P x V H Z P Y V B J n v 3.b <.iXNXCX`.L.S.C.7XNXDXGXSXHXKXHXDXNXNXHXHXJXZXHX",
";X;X;X;X;X;X;X;X&X;X;X;X:X&X:XS.F.$X9.BXxX_.z P n I n Z V V L G V V Z P I v n L D 9.iXCX`.L.S.F.=XqXlXzXhXxXxXhXzXzXzXzXzXzXzXhX",
";X;X;X;X;X;X;X;X;XF.F.S.;X&XF.>XC.+Xq.NX(.k C V G P n G G V b V G v H P v 4.H v x B <.vX_.d.D.:XF.F.>X;X:X&X;X;X:X;X;X:X:X:X;X;X",
";X;X;X;X;X;X;X;XG.&X;X;XV.S.F.&X:X6Xq.(.4.P P 4.P V I I H n V L P I G n V n P I V P G e.e.L.G.F.-X-X=X;X;XC.F.F.;X;X;X;X;X;X;X;X",
";X;X;X;X;X;X;X;X;XS.:X&X>X;X:XF.=XM.h 0 j m c j h l h j l h c N l l c h l l c h h h M h w d.A.-X&X:X:X;X;X;X;X;X;X;X;X;X;X;X;X;X",
";X;X;X;X;X;X;X;X;X>XF.;X&X&XB.4X:   O   . X X O . . . o . O .   . +         . . o o . + + o o M.>X;XF.F.S.F.F.;X;X;XF.;X;X;X;X;X",
";X;X;X;X;X;X;XF.H.=X:X:X=X;X-XbX;   X - @ * -               O & %   ; + - @       .         o A.;X;X;X;X;X:X&X*X:X;X;X:X:X:X;X;X",
";X;X;X;X;XF.;X;XC.3XMXSXeX5XGXJXpXl O - Y.$.K.=         o   $ r.M . ; Y.>.K.@   o       o , L.&XF.;X;XF.V.;X>X-X;X;X;X;X;X;X;X;X",
";X;X;X;X;X;X;X,XgXGXSXJXHXFXHXnXW 6.<   = K.K.Y.=     .   O M e T &   ; K.K.Y.@         # C J I.F.F.;X;X:X;XF.F.;X;XF.F.;X;X;X;X",
"F.&X:XV.H.D.=XMXHXHXHXNXDXJXGXkXv G B #   - - @ ;     X   & 3.b I A +   ; @ - -   X     < 6.q W.F.;X;X;X;X;X;X;X;X;X;X;X;X;X;X;X",
"-X>XV.:X&X2XMXNXGXGXZXvXGXGXCXiXP C 6.1         X X     O h u 3 < m $ X       X       # Z 1.e P.F.;X;X;XF.F.;X;X;X;X;X;X;X;X;X;X",
":XF.F.,XwXvXAXbXNXMXMXMXNXMXcXkXx z n J a s j 0 l 6 p Q.e.i , < < > 0.~.M 9 0 p j j a N I c e L.F.F.;X;X;X;X;X;X;X;X;X;X;X;X;X;X",
"&X;X;X,X3X2X1X1X1X,X5X5X1X,X5X9XG W V n <.Y J 5.Y q.nXSXSXaX1 1 > ;.SXHXSX`.Y P q.P K U Z n I L.F.F.F.;X;X;X;X;X;X;X;X;X;X;X;X;X",
";X;XV.;XC.Z.F.F.C.;X&XC.:X&XC.%XL V D n B H n Z G sXJXHXNXHXtX, ;.HXCXFXGXHX^.D N b J b ,.e D P.F.;X;X:X;XF.F.;X;X;X;X;X;X;X;X;X",
"F.;X;X;X;X,XF.:X;XF.;XF.:X;XF.$Xx b n <.L v P n 1.mXSXZXFXHXJXf tXJXJXJXBXJX(.m I H N T L V D P.F.;X;X;X;X;X;X;X;X;X;X;X;X;X;X;X",
";XC.F.-X:X:X;X=X;XS.-X;XF.-XF.#Xn G B H V C H V v Q.JXHXNXHXSXs yXHXZXKXHXaXM H V x N J G L J L.>XV.V.;XV.F.;X:X;X;X;X;X;X;X;X;X",
"&X;X;XF.>X;XF.;X;X;X;XC.;X>XF.*XT.L 4.C x V n L n 9 ;.nXJXKXL.a s |.HXKX|.a q C Y n 1.n V L f 6XF.;X5X4X-XF.;X;X;X;X;X;X;X;X;X;X",
";X;X;X;X;X;X;X;X;X;X;X;X;X;X;X;XF.@XK Z n C P x n W =.7 yX;.9 4.z u |.0.4 Z P G x G C G D W.7XF.B.qXHXmXzX&XC.;X*X:X;X;X;X;X;X;X",
";X;X;X;X;X;X;X;X;X;X;X;X;X;X;X;X:XH.T.H J L n V k 2.u.2.6 A U L ,.n 0 j V n n V L U C q e.mXHXgX8XCXSXJXHXzX5XF.F.S.F.F.&X:X;XF.",
";X;X;X;X;X;X;X;X;X;X;X;X;X;X;X;XF.S.G.U.E x P S (.a.3.V U K L B V V Y U 5.Z V L C V 4.(.nXHXKXJXHXHXJXSXHXHXzX,XC.;XF.;X:X&X;X;X",
";X;X;X;X;X;X;X;X;X;X;X;X;X;X;X;X>X&X=X;X&Xy w (.FX!.m L F v q K D G H q F G B G H 5 ~.JXZXBXZXGXSXJXHXGXJXZXMXcXgX3X&XC.;X>XS.:X",
";X;X;X;X;X;X;X;X;X;X;X;X;X;X;X;X:X=X;X:XP.6 Q.GXw.e b 0.9.9._.).0XQ.R !.M q ,.B u 3 9.yXgXhXhXgXxXxXxXxXxXhXhXhXcXwX<XC.;XV.:X&X",
";X;X;X;X;X;X;X;X;X;X;X;X;X;X;X;XF.:XB.M.z /.JXE 8 =.7 tXlXhXMXAXAXvXlXzX0.t =.5 6 l e L.F.C.:X:XC.;XF.F.F.;X:X&X;XV.;X;X;X;XC.F.",
";X;X;X;X;X;X;X;X;X;X;X;X;X;X;X;X;X>X#Xi Q T e.S C 3.8.-.].mXGXKXJXmXfXt.8.8.,.V L I I 9 s.;X&X;X;X;X;X>X:X&X:X-XF.F.S.F.;X;X;XS.",
";X;X;X;X;X;X;X;X;X;X;X;X;X;X;X;X;XF.$X< z r 0 j H H B 3.8.'.XXHXdX].i.2.4.N I v 6 b 4.9 s.G.S.F.F.;X=X&X;XF.F.;X&X:X;X;X;X;X;X;X",
";X;X;X;X;X;X;X;X;X:X:X-X;X;X;X;XF.;X$X2 Z 3.p u 4.D V C B a.a.fX].'.w.C G P H c < B 4.9 s.G.F.:X;X;X;X;X;X;X;X;X;X;X;X;X;X;X;X;X",
";X;X;X;X;X;X;X;XF.F.;X;XF.:X:XD.<X:XA.3 G P 9 p Y 5.B B w.}.].p.p.}.t.b 3.n U k 2 G W 9 s.G.=X;X;X;X;X;X;X;X;X;X;X;X;X;X;X;X;X;X",
";X;X;X;X;X;X;X;X;X:X;XF.F.;XF.F.F.V.R.3 p 4.d 4 4.z n z w.}.a.XX}.}.t.z V U B V 3 b n 3 f %X-XV.;X;X;X;X;X;X;X;X;X;X;X;X;X;X;X;X",
";X;X;X;X;X;X;X;X;X*X;XS.;XF.F.*XD.T.K p p 4.p 6 1.G Y x w.}.].dXdX'.2.L H v P m 3 n B 3 e 0.F.:X;X;X;X;X;X;X;X;X;X;X;X;X;X;X;X;X",
";X;X;X;X;X;X;X;XS.;XF.F.;X:X-X:XF.P.D i p I a i U H z C L t.p.u.a.}.t.v P N n B 2 H V 2 B n %XF.;X;X;X;X;X;X;X;X;X;X;X;X;X;X;X;X",
";X;X;X;X;X;X;X;X;XF.;X;XF.:X:XJ.P.H J 9 y L a i J G <.N w.p.y.JXnX{.i.z v C x N y V 6 3 m H W $X;X;X;X;X;X;X;X;X;X;X;X;X;X;X;X;X",
";X;X;X;X;X;X;X;X:X;X;X:XS.F.&XS.W.F M H 3 6 F 9 p P B D t.}.].mXfX{.t.b J Y c 2 N N 2 k P V B #X;X;X;X;X;X;X;X;X;X;X;X;X;X;X;X;X",
";X;X;X;X;X;X;X;X;X;XF.:X-XD.=XP.L V H Y 6 j 5.p 4 P n x 5.].{.'.{.{.8.V L F l 3 K n 3 z C n x R -X;X;X;X;X;X;X;X;X;X;X;X;X;X;X;X",
";X;X;X;X;X;X;X;XF.:XF.F.F.*XD.L.x C G P p 3 L 6 6 P V C G 7.t.8.t.8.3.n n Y m 3 v h 3 N v L n H %XF.F.*X;XF.:X;X;X;X;X;X;X;X;X;X",
";X;X;X;X;X;X;X;X;X:X;XF.;X*XD.L.K V C n n i u 4.p a P v C Z n 5 0 V B Z P N y c n < h F 1.C v V %XF.F.*X;XF.:X;X;X;X;X;X;X;X;X;X",
";X;X;X;X;X;X;X;X;X;X;X:X;X:XF.W.K H G H 3.6 u 5.a 3 3.F C F H y l Y J 1.n z 5 n l 5 L C n K G n %XF.F.:X;XF.:X;X;X;X;X;X;X;X;X;X",
";X;X;X;X;X;X;X;X;XF.F.:XF.D.F.W.e V B V 5.j 3 H h 9 c 4.V P I 3 0 Y V Z I l u 3.j y C n B W n x #XF.;X:X;XF.;X;X;X;X;X;X;X;X;X;X",
";X;X;X;X;X;X;X;X;XF.;X;XF.F.;XT.C V D G n z 3 z P 9 2 G D n x y l n n n 0 5 <.b 4 j B n D L H 0.#X;X;X:X;XF.;X;X;X;X;X;X;X;X;X;X",
";X;X;X;X;X;X;X;X;X;X&X>X>X*X;XS.L.3.pXpXpXpX3 c n e.pXpXpX`.m 3 a r.uXpXpX XL 6.4 L.sXuXsX(.S $X-X;X;X;X;X;X;X;X;X;X;X;X;X;X;X;X",
";X;X;X;X;X;X;X;X;X;X&XF.;X*X;XJ.R.uXHXJXHXJXiXn e.mXGXJXHXSX~.> s dXKXJXJXHX Xk ^.mXJXHXGXHX_.$XS.;X;X>X;X;X;X;X;X;X;X;X;X;X;X;X",
";X;X;X;X;X;X;X;X-XF.;X;XF.F.-X=XwXJXKXKXJXHXHX/.pXHXSXGXJXJXGXd ).JXJXFXFXJXJX^.sXGXFXGXSXGXKX,XF.;X;X>X;X;X;X;X;X;X;X;X;X;X;X;X",
":X;X;XF.:X:X:XF.-X&X&XV.;X;X&XC.xXFXDXZXFXGXDX.XnXMXGXZXJXBXHXf  XGXDXZXZXZXHX.XmXMXGXBXJXBXHX2XF.F.;XF.;X&X&X:X-X:X&X:X;X;XF.S.",
";XV.&X;X;XV.S.-X;X;X>XF.;XV.F.B.rXCXvXZXBXvXZXyXtXZXDXvXDXBXZXg ).MXBXNXZXBXBX_.kXcXbXZXCXMXvX3XZ.>XF.F.;X;X;X:XF.S.;X;XF.F.>X;X",
";X&X:X;XN.@.g.x.h.f.x.h.g.g.n.f.j.z.@.n.v.@.c.:.*.k.c.k.n.k.v.: #.k.z.z.c.k.x.$.@.z.*.E.@.v.z.m.g.g.o.g.f.g.x.x.h.h.x.N.>X;X=X:X",
"&X;X;Xb.f.^ _ %.^ { ..` ` !  .! ^ &.[ ` ) ! +._ ( ( [ ( / ^ ( { ( (  .&.( [ ( _ ^ ! { | ^ [ [ / { ) { { ` ` .. .! { { o.b.S.;X&X",
",XN.h.| X.o.' ' [ ' ' ^ %.+.} } ` {  .| %.} O. .} | ` } @.| O.' O.| {  .` *.| ` O. .| ] } [ ] | | +.%.{ | | | | ..| o.{ ' h.N.-X",
"b.j.~ ' %.X.[ }  .} o.` ..+.^ ` } +.' ` } ^ ' ' O.z.+.` ` ` [ O.^ | | ` | ` O.+./ [ [ +.} [ [ { ` } &.[ } } } } %.| | +.` ) g.b.",
"` +.+.` ` ' } | ` ^ %.%.) [ +.| ` | ` | |  .} ` { { } { %.| (  .[ +.} |  .} ` | +.` } } | ' +.} | ` ..%.| | | ] ' | o.[ O.O.[ ! ",
"( [ ] ) } } ` { ' ` { | ' ` } '  .| } ^ ` ..| ' ` ] / } { ' } ] ` ` ^ ` } | ` { X.' [ [ [ | [ } } ' [ | ` } } ' ' ' _ ' [ ' } } "
};
