/* XPM */
static char *_8d45875351f4247d5060156744d2bf6OtS4vOY8z6VH7tfJ[] = {
/* columns rows colors chars-per-pixel */
"64 64 244 2 ",
"   c #12ABAF",
".  c #1AACAE",
"X  c #14A4AF",
"o  c #13B4AF",
"O  c #1BA6B3",
"+  c #16ACB4",
"@  c #1DACB4",
"#  c #1CA5BA",
"$  c #15ADBA",
"%  c #1DADBB",
"&  c #17A5B3",
"*  c #0BB1B1",
"=  c #14B2B5",
"-  c #1CB2B6",
";  c #15B3BA",
":  c #1CB3BC",
">  c #1EB8B6",
",  c #0CABB1",
"<  c #21AAAC",
"1  c #22B3AF",
"2  c #23ADB5",
"3  c #2AADB5",
"4  c #2DA7BA",
"5  c #25AEBB",
"6  c #2BADBC",
"7  c #24A5BA",
"8  c #34AEB4",
"9  c #32ADBD",
"0  c #38AEBC",
"q  c #24B3B6",
"w  c #2BB2B5",
"e  c #25B3BC",
"r  c #2AB2BD",
"t  c #24B9BC",
"y  c #2AB9BC",
"u  c #25B8B0",
"i  c #34B8B4",
"p  c #32B2BD",
"a  c #3CB4BB",
"s  c #32BBBC",
"d  c #3ABABD",
"f  c #37B5B5",
"g  c #44B6B4",
"h  c #44B5BC",
"j  c #4CB5BC",
"k  c #43BABD",
"l  c #4ABABA",
"z  c #52B9BF",
"x  c #5FBBBA",
"c  c #6CBCBB",
"v  c #5FC3BB",
"b  c #48C1B2",
"n  c #70C6B9",
"m  c #1DADC3",
"M  c #1EB5C1",
"N  c #18B5C0",
"B  c #24AEC2",
"V  c #2CAEC2",
"C  c #2EADCC",
"Z  c #31AEC3",
"A  c #34ACC5",
"S  c #25B3C2",
"D  c #2CB3C2",
"F  c #2BB8C2",
"G  c #2CB3CA",
"H  c #26B6C7",
"J  c #32B3C3",
"K  c #3CB5C4",
"L  c #32BAC3",
"P  c #3CBBC4",
"I  c #3DBCC9",
"U  c #33B1CA",
"Y  c #42B7C1",
"T  c #4DB6C2",
"R  c #43BBC3",
"E  c #4ABCC4",
"W  c #44BCCB",
"Q  c #4DBBCA",
"!  c #56BDCB",
"~  c #5CBECA",
"^  c #56BBC3",
"/  c #57BAD1",
"(  c #66BDC8",
")  c #4BC2C3",
"_  c #4EC6CA",
"`  c #5AC3C4",
"'  c #5BC4CD",
"]  c #55C5C5",
"[  c #5EC1D4",
"{  c #56C5D3",
"}  c #63C3C6",
"|  c #64C3CD",
" . c #6CC3CC",
".. c #63C9CC",
"X. c #6DCDCC",
"o. c #69C7C6",
"O. c #7EC5C6",
"+. c #74C4CB",
"@. c #79C3CB",
"#. c #72C8CC",
"$. c #7CCBCC",
"%. c #74C8C3",
"&. c #76D3CE",
"*. c #6CCDD4",
"=. c #64C8D4",
"-. c #7BC5D3",
";. c #74CCD6",
":. c #7CCDD2",
">. c #76CBD8",
",. c #73D1D5",
"<. c #7AD2D9",
"1. c #85C9CA",
"2. c #91CDCD",
"3. c #89D3CD",
"4. c #84CDD4",
"5. c #8ACDDB",
"6. c #8ACAD7",
"7. c #95CAD6",
"8. c #83D3D3",
"9. c #8CD2D2",
"0. c #84D3DA",
"q. c #8BD8D8",
"w. c #95D2D6",
"e. c #9CD6D6",
"r. c #93D2DC",
"t. c #9AD2DB",
"y. c #9DDADD",
"u. c #91DBDD",
"i. c #AACEDA",
"p. c #B5CFD0",
"a. c #A3D4D5",
"s. c #ACD5DB",
"d. c #A3DBDD",
"f. c #AADAD7",
"g. c #B2DCD4",
"h. c #B5D3DC",
"j. c #BCDBDD",
"k. c #B8D9D9",
"l. c #B4E2DD",
"z. c #BEE2DE",
"x. c #81CEE0",
"c. c #8BD9E1",
"v. c #97D3E3",
"b. c #99D9E4",
"n. c #9FDCF1",
"m. c #AADEE4",
"M. c #A7D8E3",
"N. c #B5D7E3",
"B. c #B7DCE4",
"V. c #BCDDE3",
"C. c #B7D8E7",
"Z. c #A9DEF0",
"A. c #AEE1E7",
"S. c #AAE3EB",
"D. c #B8E6E7",
"F. c #BDECF1",
"G. c #BAE8F2",
"H. c #C1DDCF",
"J. c #CDDBD4",
"K. c #C4DBDB",
"L. c #CBDDDC",
"P. c #D3DDDC",
"I. c #DEDEDD",
"U. c #D5DFD7",
"Y. c #C5E1DD",
"T. c #CDE3DE",
"R. c #C8E7DA",
"E. c #D4E4D7",
"W. c #D5E4DC",
"Q. c #DAE3DC",
"!. c #D8EDDB",
"~. c #C3DCE3",
"^. c #CCDDE3",
"/. c #C5DBE7",
"(. c #D3DEE3",
"). c #DADFEB",
"_. c #D8DEE6",
"`. c #C2DFF1",
"'. c #E3DEEB",
"]. c #C5E3E3",
"[. c #CDE3E2",
"{. c #C5E3EC",
"}. c #CBECEB",
"|. c #CBE8E9",
" X c #D4E3E3",
".X c #DBE4E4",
"XX c #D5EAE4",
"oX c #DDEAE6",
"OX c #D5E4EA",
"+X c #DCE5EA",
"@X c #D6ECEA",
"#X c #DCEBEB",
"$X c #D5F0ED",
"%X c #DCF0EC",
"&X c #CBEDF4",
"*X c #C6EBF4",
"=X c #D6ECF3",
"-X c #DBEBF4",
";X c #DCECFB",
":X c #DEE4F2",
">X c #D4F4FB",
",X c #D9F3F5",
"<X c #C5F1FA",
"1X c #E2E4E5",
"2X c #E2EDE5",
"3X c #EBECE5",
"4X c #E4E5EB",
"5X c #E3EBEC",
"6X c #EBECEC",
"7X c #ECE7E9",
"8X c #F2EDED",
"9X c #F9EDE9",
"0X c #E4F3E6",
"qX c #EAF5E5",
"wX c #E5F1EB",
"eX c #ECF3ED",
"rX c #EAF8EA",
"tX c #F2F3ED",
"yX c #FBF2EE",
"uX c #F5FAEE",
"iX c #F7F6E8",
"pX c #ECEDF2",
"aX c #E2EFFD",
"sX c #E6EAF7",
"dX c #F4EEF3",
"fX c #FAEEF3",
"gX c #F3EDFA",
"hX c #FEEEFB",
"jX c #E4F3F3",
"kX c #EDF2F3",
"lX c #EBFAF3",
"zX c #E3F5FD",
"xX c #EBF6FB",
"cX c #E6FBFD",
"vX c #EBFBFC",
"bX c #E3F9F4",
"nX c #F3F3F3",
"mX c #FBF4F4",
"MX c #F3FAF5",
"NX c #FCFAF4",
"BX c #F4F5FA",
"VX c #FCF4FB",
"CX c #F4FCFD",
"ZX c #FDFCFD",
/* pixels */
"r r r r r r r r S D r r e e r D e e y 5 D 6 r q r r r r r r r r e r r 6 r r e e e r r 6 6 r e e G e y q e 6 r e r r r r r r r r ",
"r r r r r r r r 9 r r r r r r 6 r r e S e y 6 V r r r r r r r r r 5 5 F e S D 9 r r r r w e r p r r 5 D r r r D r r r r r r r r ",
"r r r r r r r r w e e D 6 e e y G 6 5 y 2 e r D r r r r r r r r Z S S r 6 5 e H e Z V e e V A F 3 y D 5 F e r 6 r r r r r r r r ",
"r r r r r r r r D 6 6 r e e e q q e 6 3 F e 5 G r r r r r r r r V e e r e r r 6 e F 6 S S 6 e e t 5 J 6 D e q r r r r r r r r r ",
"r r r r r r r r V 6 r e e D J J p D S D 6 6 r e r r r r r r r r 6 F e 5 p 6 5 D 6 r e e 6 r p r 0 V B D 2 r r S r r r r r r r r ",
"r r r r r r r r e e e q r V 5 5 S p a s & S r w r r r r r r r r e r e D H S % $ 5 D e r 6 r D M $ e i i y 2 D 6 r r r r r r r r ",
"r r r r r r r r r e 2 9 J : q E y.cXBX{.<.{ 4 r r r r r r r r r r 3 U e . R <.4...5 D - e V X k ;.m.xXxXG.' 6 r r r r r r r r r ",
"r r r r r r r r D e e A B q $.CXNXmXdXMXNXCXu.= r r r r r r r r 6 J + 2 0.aXVXNXZX<.& ! =.D <.0XNXZXnXyXyXCX( $ r r r r r r r r ",
"r r e r 6 e S e 9 e S r 4 f bXmXpXnXkXnXpXVXMXW 6 e 6 r 6 6 e e e r @ 0.ZX9XnX3XmXZXA.CXZX$XNXNXyXkXBXeXqXmXG.s d D S 6 V V t r ",
"q V G S y y 3 D r r e 2 r c.ZXkXnXdX8XnXnX6XZX' + r S 6 L e 2 G G m E ZX3X#X.X%XCXnXNXmXkXtXfXpX+XBX5X.XnXBXVXnXNXb.+ p e D r e ",
"S S e D D 3 6 e D e u D O &XNX6XnXnXmXeXkXnXZXo.: Z 5 5 e e e @ 8.M.g.NX4X(.fXkXgX#XpX2XoXOXwXnX2XW.@XkXkX%X5X#XqXZXv.@ + r : S ",
"r r 6 6 e S G % 3 S 2 W W {.mXiXnXnXZXNXnXMXNXA.  r p e r D Z s T.NXNXpX XR.pXnXnXeX(. XpXgXnXfX+XXXBXdX8XnX#X5X8XZXZXF.e.3 G 6 ",
"r 3 y 6 A 5 q k | % 0.BXCX-X=X8XnXlXZXZXNXCXmXxXc.0 5 r 6 5 6 s :.-.-.$.].L.P.0XiXoX XK.4X6X#X#X.X[.kXkXkX1XJ.eXfXeX2XtXyX#.7 J ",
"A e q r $ R <XeXCX-XZXmXtXBX4XnXnXlXpXnXNXkXtXpXZXZ.N 6 3 e D S @ B $ + ( ).P.XXC. XL.Q.Y.j..XK.e.^..XI.1X X[._.eX Xi.r.t.r.w S ",
"r Z % . u.BXVXtXtXZXmXlXXX5XtX4XdXwX4X2X5X.X3X5XmX/.< S J w e 5 3 r J S m j e.6.E j.j.l.} J } k B ) a.~.O.+.C.k.g.( & 5 : 5 D e ",
"e e ! G.ZXtXtXkXnX5X:X3X6XOXXX5XpXnXBXXX.XkX6XT.[.ZXu.; C r w e S q 6 e 9 - S e q r D 6 D e % 5 0 q 2 r S 5 e e r B S q D 6 e 6 ",
"r 8 -XNXeX.X).5XnX5X#XtXBX X+XmXBXnXdXpX5XtXBX X#XmXBXl 5 D r q r r r r r r r r r 6 9 e r r Z D S U e : J e 3 S S 6 e e e r D S ",
"e r N.9X0X.X(.!. XL. XkXpX@XK.6XnXnXkX.X+XnX6X.XW.uXMX{.w e 6 r r r r r r r r r F e 5 S r e 5 D y 5 9 p q 5 H 9 D r 6 p r e e e ",
"e B T h.[.t.&. X.XW..X X[.T.L.|.oX2XXXK.+X1X(.]..X5X5X'.] e V D r r r r r r r r 5 r D e r e w w 3 D S D P R L 7 6 S e r r V J q ",
"D H ; f d 4 @ -.5.7.9.x w.+XU.T.^.(.y.g } t. .s 7.6.7.4.a 5 V e r r r r r r r r F D Z 5 G 6 6 e p p @ ;.CXlXBX` + e e 5 Z w q A ",
"e e 6 6 S U r @ : + @ : p 7.C.1.T ^ a % B + e A - : 2 = e G 7 y r r r r r r r r e e 6 e 6 e 9 r 6 + ) ZXiXqXNXBX,.f S H e r D S ",
"J 2 y H 5 e e r r 9 J S % 5 e % B % S V U r e D r 5 K J V 6 D q r r r r r r r r p e J r J e r 6 % ;.aXVXfXBXkXMXZX:.6 2 e S 5 e ",
"V r V V 9 r r 6 r r 6 p L 2 p w 6 e r 6 6 1 w e e e 2 r D r r 6 r r r r r r r r S # $ : ; r e 2 X.CXNXwXnXwX8X8X#XZXD.R 5 w 2 D ",
"e D 5 y w e S 6 e D D e e G V r D 2 p 6 e r 6 H V 0 e e 6 r 5 H r r r r r r r r d x.*.,.g `.*XF.NXnX6XnXBX6X XW.#XkXZXvX:.6 G e ",
"r D 5 r r r r r 6 e r V G r D V r e 6 Z S e q A r r r r r r r r r e S l e 5 B & l.ZXNXCX5XZXZXnX+X X%XdXfXBXkX XwXBXeXNX;X+ V w ",
"r r 5 r r r r r G e r 3 : 5 2 - A e t D 5 F 5 : r r r r r r r r 9 % b.ZX5.= -.M.kX4X1X7XNXtXwXnXP.6XnXnXBXnX5XL..XVXpXnX|.E e 6 ",
"r r r r r 5 r r e V % d ] E / P + D 6 6 r 6 V r r r r r r r r r e r.ZXqXtXR b.uXkX.X+X6XkXtXeXW.L.#XnXtX2X5X[.).Q.+XkXoXW.(.8 B ",
"r r r r r r r r r e -.;XZXnXCX#X<.: D e : V 6 6 r r r r r r r r r /.nX5XK.h K f.s.[.W.2X5XgX.XXX[.k.4X X X4Xe.%.V..XE.~.v g r Z ",
"r r r r r r r 6 3 q.ZXNXeXBX6XZXxXh G U 5 r r 6 r r r r r r r r 2 a ( | ! - S 5 + ( V.J..XV.@. .[ j m.k.j.O.s % K ..o.E : S V 5 ",
"r r r 5 r r 6 r d CXmXeXfXBXmX3XZX&X3 B y 2 S 6 r r r r r r r r D q B : B 8 6 V 6 : y z 5.` + 5 q 2 K 9 D 5 5 9 6 = 5 B V 6 t D ",
"r r r 5 r r 5 J @XMX8XMXeXNXCXBXnXBXb w - r 5 F 5 r r r r r r r 6 r 9 e p t e e e Z 5 S 5 2 F D 0 F % G A A S D V D 6 6 U e 3 8 ",
"r r r r D 6 2 I BXgXdXtXnXgXZXNXZXMXcXaXK 6 6 $ 5 r r r r r r r r C q q F B r D V e e 3 p S e r S 6 r - . 3 J 5 r : r p @ S D V ",
"r e e r r + X.zXmXkXMX8XBXtX8XkXnXBXnXCXjX>XS.` [ e % O q r r q D q D q r y B w q e D V B F r 8 G e p ' | Q 5 6 t 9 e q w V D e ",
"A r V S p ;.ZXZX.X6XnXnXnXkXnX3X.X0XpX4XtXmXVXVXNXD.C.Z.a % V r B J 6 e F 2 C D V 5 e y r r % % & < V.ZXZX&Xi I D e r r 7 6 y 6 ",
"r 3 q 9.hXCXkX1X$XnXkXnXnXkXBXfXwXoXQ.3X6XeXE.}.kXZXMXZX=XX.e V e H V e D p 5 B 6 F e Z 5   _ b.q.D.ZXkXkXNXvXBX$.2 B 5 q 6 D e ",
"q S e (.mXnXVXE.XXdX6XnXmXkXpXdXnX5X XkXtXMX(.4X3X6X6X4Xd.k J B 4 r 1 m.,XjXw.% r 6 e < [ #.,XZXVXVXkXBXnX6X9XMXvXzXM._ p e r 6 ",
"e A B f.0X#XXXR.[.6XnXtXnXnXBXlXdXL.~.OXXXXX.Xg.l.h.@.` h % S p H 2 A.ZXmXiXZX0.: q 4.F.xXZXNXeXkXnXmX6XtXfXnXgXtXtXtXZXS.@ V F ",
"5 J 2 1.(.^.^.i.]..XeXkXnXnXnXXXU.OX[.U..X(.N.d 5 U % - 3 9 r e @ *.VX=XOXnXtXnXW i sXNXtXtXkX6XW.eX6XlXeXfXBXwXBX(..X9Xz.q V r ",
"6 r D e I L h J d.(.P. X X.X XT.Y..X2.4.a.o.6 B e D A 3 D G e q e {.3X].oXpXT.K.0 f ).5XoX5X5XT.T..XnXnXeXW.5XBXsX XXX~.j e 9 - ",
"H r D 5 6 B e % %.OX^.Y.^.^.Y. X.XC.R % 7 e q r p e D e q D e 9 e @.a.` s.c 4.E m w 1.~.'.K.(..X X.X+X(.+X(..XW.E.f.z W : B A r ",
"r r r r r r r r q :. XW.1X'.^.Y.4.d B 6 9 e 6 t r 6 r S 5 r r D V 5 e e 5 % e e S 5 6 W =.^  . .s.e.k..X].O.t.(.N.a * S 9 e : V ",
"r r r r r r r r V e h 5.9.r.! D 5 q 9 J D 5 e 9 5 S V 6 F 3 0 t e 5 6 9 J D 6 r r J 6 2 e @ q . w y T 0.a e J a w 2 D A 6 e r 9 ",
"r r r r r r r r e 6 U % + > e 5 V D - 6 D > q C 5 r s 9 5 M M 6 r e y 6 e r 6 D e D 5 r 6 D D D 6 r q . r 6 D e : D A V r y e r ",
"r r r r r r r r r 9 5 6 J 6 9 D G r r e 6 e e 2 ~ G.bXlX>Xj   s 9 e e e e e e 5 r r 5 D 6 V 5 D 6 r D 5 F D V e Z V S e r e e S ",
"r r r r r r r r e 6 F e 2 - + % V q 3 F D ; Q |.ZXZXZXmXNXlXb.5 D D B F r e r r r r r r e F e e H e 6 J 7 D S S 5 e e r e e e V ",
"r r r r r r r r 6 V e w 5.y.e.m.] 2 J 6 5 E zXuX8X6XnXdXkXVXCXd.- D A 6 r 3 e D D r r r 6 r r 3 6 r q - J y - 9 F r e r 6 r D r ",
"r r r r r r r r G % ~ zXZXNXCXCXxX_ S 6 w >XNXnXtXeXnXBXkXlXrXMX^ 2 S V F e r e r 6 5 r r e r r D y p U 6 e r Z 6 6 e F r 5 r r ",
"r r r r r r r r e g cXNX6XnX6X6XZXD.- B ` ZXVXMXBXnXnXnXfXdXnXNX;Xw ; 9 r e 0 S r D r D 5 D D 6 % O + : V w t e D D e 6 D e r 6 ",
"V S S r p e e G m y.ZXnXnXnXkXnXeXZXP 5 =XZXZXBXnXdXmXnXMXoX5XnXZX0.q e 6 % : 5 % 2 $ B r 5 ; W y.y.m.=.@ F e r e 6 S r 6 e y 5 ",
"D 2 y 6 5 G J r 3 |.mXkX6XtXmXMXmXZX2.G.ZXMXnXtXoXeXBXkX5X.X4XmXCXZX$Xj P &.X.5 ' 4.8.| + Q y.kXVXVXNXZX#.: V r w 2 e r S % 9 D ",
"r r q e B # % , ..CXtXkXnXeXBXCXZXkXNXZXnXeXfXtXwX5X.XoX.X6XnXZXCX8XZX,XzXNXCXr.ZXVXNXZX) v.ZXiXpXnXrXiXZX*.o r e p 6 6 p F r S ",
": U r w X.A.d.q.w.VXnXkXBX6XfXnX5X5XkXkX XpXmX6XnX.XP.jXkXBXkXkX5X4XgX6X0XoX5XZXNXjX6XVX}.vXtXeXBXNX8XkXfXZX..# D A D H q r 6 e ",
"D : Y &XZXZXZXZXcXoXI.4XnXkXnXnXkX5X XXXwXnXnXBXnX.X XwXnXnXdXnXeX.X XoX.XpXpXBXZXZXpX6XNX6X#XfXnXZXZXMXMXZX{.;.k @ 5 G e e D D ",
"D @ +.VX3XdXgXpX5XH.W.pXtXtXdXmXnX#X X6XNX3XBXxX XL.T.oXkXnXmXnXnX6XP.5XBXfXmXqXeXqXnXoX1X#XsXBXnXgXBXNXyXwXZXZXxXq.P % U A 5 e ",
"6 : ] oX!.6XpXI.'..XOX+X3XnXkXXX.XJ. X+XQ.2X.XXX[.[.[.L. X.X6XnXXX(.OXR.XXkX6XqXfXnXdXpX[.5XfXqXtXeXnX3XkXBXpX2XwXZX;X! 5 C D e ",
"w S 6 i..Xj.O.9.3.2.8.a.XX X'. X[..XB.7.].[.OXE..X.X XL.T.[.T.[.XXg.k..X_. XOXgXeX5XoXL.].L.5XpXnX5X X].#XnX3X[.OX6X7X3.1 S r w ",
"e 5 r I W J 5 % B % % J W ^ +.m.p.d.^ 6 I  .d.p.s.a.j..X XT. X(.M.h a 6.s.j. XQ. X[.T..X.XT.T.P..X X.X X.X.Xf.$.s.t.} f e e 6 9 ",
"F r 6 6 6 6 r S w y e 5 e + O 9 % H e e r 5 5 S e ; E  .%.V.^.n e @ - q 2 Z #./.K.~.t.} ( t.~.K./.O.`  .+.~ 9 m 2 r 5 2 D F r r ",
"e r y r 6 r r r e r r 6 D H D V S r r 6 6 6 5 D 6 r 5 O 6 p J e e U V e U S : w p J D % % V J p J 5 5 % @ e e V D D G V D r e e ",
"6 r r e r r r 5 G V 6 6 6 e r r w e F B S F r w e e D A D : B V w 6 V r q w 9 A 5 - q w 3 q - e : 6 U S : r r e 6 r e e e e 6 D ",
"r r e e e r r r D 6 e r e e S S 6 6 6 r 5 6 D r r : D Z 5 6 0 e F : r J e e D D 6 D D S S F D 6 w e D G Z Z V D e e e w r r 6 D ",
"r r r D r r r r e e r e e r Z V 6 e e y w e r 6 6 J S M F r 5 F V e q 6 V 6 r r e 6 6 D D 6 6 e 6 D J 6 5 - e 3 G V 6 6 6 r D F ",
"r r r r 5 5 r r e D D e e r r e e e 5 5 6 r e e e D V 6 6 r e 5 r y e 6 r w q S 6 r r r r r r 6 r 6 w w r r r e 5 e S S D r r 6 ",
"r r r r r r r e e r 6 D D Z 6 e V 6 r r r r 6 D e e r D r e 5 D V 6 r S V r r V D r e e e e r D D e e e 5 6 G S w e e r 6 r r r "
};
