/* XPM */
static char *_02020fdf1f2429db2d06ab4e4f2b14cehoTVxSZX8QGHIF6[] = {
/* columns rows colors chars-per-pixel */
"64 64 232 2 ",
"   c #D89F6B",
".  c #D19E71",
"X  c #DDA66D",
"o  c #CDA877",
"O  c #DEAC75",
"+  c #D6A675",
"@  c #D9B172",
"#  c #E1A96E",
"$  c #E2A569",
"%  c #FAB76E",
"&  c #E9B478",
"*  c #F2B473",
"=  c #F4BB7C",
"-  c #FABC7B",
";  c #F6B975",
":  c #E8AB75",
">  c #FEC17C",
",  c #00AEEF",
"<  c #01B6EE",
"1  c #05BAEE",
"2  c #0EBEEE",
"3  c #00AFF0",
"4  c #02B3F1",
"5  c #08B7F6",
"6  c #05BAF2",
"7  c #0CBEF2",
"8  c #0ABBF9",
"9  c #10BEF0",
"0  c #0EC2F5",
"q  c #13C2F2",
"w  c #1FC5F2",
"e  c #10C0EF",
"r  c #20C5F3",
"t  c #2EC7F2",
"y  c #2FC8F3",
"u  c #31CAF5",
"i  c #29C2EE",
"p  c #41CAF5",
"a  c #4FCAF3",
"s  c #50C9F4",
"d  c #5FCCF3",
"f  c #60CBF5",
"g  c #6DCFF6",
"h  c #7ACFF6",
"j  c #77D1F6",
"k  c #7FD5F8",
"l  c #78D0F6",
"z  c #BB9F87",
"x  c #CCAA8D",
"c  c #C8A589",
"v  c #D4AD82",
"b  c #D8AC85",
"n  c #DBB48B",
"m  c #D7B287",
"M  c #C9AD91",
"N  c #D2B392",
"B  c #D9B698",
"V  c #DCBD9C",
"C  c #D7B798",
"Z  c #C9B491",
"A  c #E8B886",
"S  c #F3BD84",
"D  c #F3BC8A",
"F  c #FBBF82",
"G  c #E7BF9A",
"H  c #D5BBA3",
"J  c #E2BFA1",
"K  c #D7C392",
"L  c #EEC48A",
"P  c #FDC583",
"I  c #FECB84",
"U  c #F5C18B",
"Y  c #FCC58B",
"T  c #FFCB8D",
"R  c #E9C39A",
"E  c #FDCB93",
"W  c #F3C59B",
"Q  c #F4CE9E",
"!  c #FCCC9A",
"~  c #F8C391",
"^  c #FFD49C",
"/  c #FFD595",
"(  c #DCC4AA",
")  c #DCC2A2",
"_  c #D8D3BC",
"`  c #EAC5A3",
"'  c #EECCA5",
"]  c #E6C9A8",
"[  c #F6CAA2",
"{  c #FCCEA3",
"}  c #F4CDAC",
"|  c #E9D1A9",
" . c #F4D1A5",
".. c #FFD5A4",
"X. c #FFDAA4",
"o. c #FDD5AC",
"O. c #FFDAAB",
"+. c #F4D3AB",
"@. c #E7CCB5",
"#. c #EAD5B8",
"$. c #F3D3B2",
"%. c #FCD6B2",
"&. c #FEDBB3",
"*. c #FDDBBA",
"=. c #F5D8BB",
"-. c #F6CFB2",
";. c #FFE2B6",
":. c #FFE2BB",
">. c #FAE7BB",
",. c #B4D5DB",
"<. c #BBE0DE",
"1. c #9BD7EE",
"2. c #8DD9F7",
"3. c #83D5FA",
"4. c #8AD6FB",
"5. c #85D8FB",
"6. c #8BD9FB",
"7. c #94D6F5",
"8. c #9ED6F2",
"9. c #94DBF5",
"0. c #9BDAF4",
"q. c #94DBFD",
"w. c #9CDCFC",
"e. c #87CFF5",
"r. c #A1D5ED",
"t. c #A3DCED",
"y. c #AEDBED",
"u. c #A5D6E7",
"i. c #B4DCEE",
"p. c #B9DAE8",
"a. c #A3DBF4",
"s. c #ACDDF3",
"d. c #A4DDFB",
"f. c #ABDEFB",
"g. c #A4D7F2",
"h. c #B3DDF2",
"j. c #B6DEF5",
"k. c #96E2FE",
"l. c #9BE2FE",
"z. c #9DE8FF",
"x. c #96E8FF",
"c. c #8FE1FF",
"v. c #ABE0E9",
"b. c #BEE1EA",
"n. c #A5E1F3",
"m. c #ACE1F4",
"M. c #A2E2FE",
"N. c #ACE4FD",
"B. c #ABE8FD",
"V. c #B3E1F6",
"C. c #BBE4F5",
"Z. c #B3E4FD",
"A. c #BBE5FB",
"S. c #B4EAFF",
"D. c #BDEBFF",
"F. c #B5E9F7",
"G. c #DED6C9",
"H. c #CADBDD",
"J. c #D2DEDD",
"K. c #C4D3CC",
"L. c #EAD9C6",
"P. c #F5DCC4",
"I. c #FEDEC2",
"U. c #F4DDCC",
"Y. c #FEDECB",
"T. c #E7DEDA",
"R. c #D5E5DD",
"E. c #FDE4C5",
"W. c #FFEAC2",
"Q. c #FEE5CB",
"!. c #FFEBCD",
"~. c #F4E0CA",
"^. c #EAE8DB",
"/. c #FCE5D3",
"(. c #FFEBD4",
"). c #FBE6DB",
"_. c #FDECDC",
"`. c #F3E5D8",
"'. c #FFF5D4",
"]. c #FFF2DB",
"[. c #FFFADC",
"{. c #FCF7D4",
"}. c #F7ECC9",
"|. c #C9DDE7",
" X c #D5DEE8",
".X c #C4E3EE",
"XX c #CCE3EA",
"oX c #C9E5E9",
"OX c #D2E5E5",
"+X c #D3E4EC",
"@X c #DBE5EA",
"#X c #DDE7E7",
"$X c #C4E5F3",
"%X c #CCE6F3",
"&X c #C6EAF5",
"*X c #CBE9F4",
"=X c #C3E6FD",
"-X c #CAE6FC",
";X c #C7EAFD",
":X c #CAEAFC",
">X c #D4E6F4",
",X c #D4EBF5",
"<X c #DCEDF4",
"1X c #D3EBFC",
"2X c #D6E6F7",
"3X c #C3F2FF",
"4X c #CDF1FF",
"5X c #DDF2F6",
"6X c #D3F4FE",
"7X c #DBFBFF",
"8X c #D9F8FD",
"9X c #E3E5E3",
"0X c #E5EDEB",
"qX c #EAE9E5",
"wX c #FDEDE3",
"eX c #F5EAE5",
"rX c #E9F2E8",
"tX c #FFF3E4",
"yX c #FFFBE4",
"uX c #FDF3EC",
"iX c #FFFCEC",
"pX c #F5F3E7",
"aX c #F2EEF4",
"sX c #E3F1F3",
"dX c #EDF3F5",
"fX c #E9F3FD",
"gX c #E6FAFD",
"hX c #FFFCF3",
"jX c #F4FEFD",
"kX c #FEFDFC",
"lX c #F7F5F2",
"zX c #E2EEFA",
/* pixels */
"3 3 4 5 8 8 5 3 4 4 4 4 4 4 4 4 4 4 4 4 4 4 4 4 4 4 4 4 4 4 4 4 4 4 4 5 8 8 4 , 3 3 3 3 3 3 3 4 4 4 3 3 3 3 3 3 3 3 3 3 3 3 , , ",
"4 4 5 5 5 5 4 4 4 4 4 4 4 4 4 4 4 4 4 4 4 4 4 4 4 4 4 4 4 4 4 4 4 4 5 5 5 5 4 4 4 4 4 4 4 4 4 4 4 4 4 4 4 4 4 4 4 4 4 4 4 4 4 4 ",
"4 5 8 8 4 4 4 5 4 4 4 4 4 4 4 4 4 4 4 4 4 4 4 4 4 4 4 4 4 4 4 4 4 5 8 8 4 4 4 5 4 4 4 4 4 4 4 4 4 4 4 4 4 4 4 4 < 4 4 4 4 4 4 6 ",
"7 7 7 6 < < < 6 6 6 6 6 6 6 6 6 < < < < < < < < < < < < < < < < 6 7 7 6 6 < < 6 < < < < < < < < < < < < < < < < < < < < 6 6 6 6 ",
"0 0 1 1 1 1 1 1 1 1 1 1 1 1 1 1 1 1 1 1 1 1 1 1 1 1 1 1 1 1 1 1 0 7 1 1 1 1 1 1 1 1 1 1 1 1 1 1 1 1 1 1 1 1 1 1 1 1 1 1 1 1 7 7 ",
"q q 2 2 q q 9 2 9 2 9 2 9 2 9 2 7 2 0 e 7 2 7 2 7 2 7 2 7 2 0 2 q q 2 2 q q 9 2 9 2 9 2 9 2 9 2 9 2 9 2 9 2 9 2 2 2 2 2 9 e q q ",
"r w w w r r r w w w w w w w w w w w w w w w w w w w w w w w w w r w w w r w w w r w r w r w r w r w r w r w r w w w w w r w r w ",
"i t u u t t u u t t t t t t t t y y y y y y y y y y y y y y y y t y u u t t t u y y y y y y y y y y y y u y y u u y y y y y t t ",
"p p p p p p p p p p p p p p p p p p p p p p p p p p p p p p p p p p p p p p p p p p p p p p p p p p p p p p p p p p p p p p p p ",
"s a s a s a s a s a s a s a s s s s s s s s s s s s s s s s s s s a s a s a s a s a s a s a s a s a s a s a s a s a s a s a s a ",
"f d f d f d f d f d f d f d f f f f f f f f f f f f f f f f f f f d f d f d f d f d f d f d f d f d f d f d f d f d f d f d f d ",
"g g g g g g g g g g g g g g g g g g g g g g g g g g g g g g g g g g g g g g g g g g g g g g g g g g g g g g g g g g g g g g g g ",
"j j j j j j j j j j j j j j j j l h h h h h h h h h h h h h h l j j j j j j j j j j j j j j j j j j j j j j j j j j j j j j j j ",
"3.k 3.k 3.k 3.k 3.k 3.k 3.k 3.3.3.3.3.3.3.3.3.3.3.3.3.3.3.3.3.3.3.k 3.k 3.k 3.k 3.k 3.k 3.k 3.k 3.k 3.k 3.k 3.k 3.k 3.k 3.k 3.k ",
"5.5.5.5.5.5.5.5.5.5.5.5.5.5.5.5.5.5.4.5.4.5.4.5.4.5.4.5.4.5.4.5.5.5.5.5.5.5.5.5.5.5.5.5.5.5.5.5.5.5.5.5.5.5.5.5.5.5.5.5.5.5.5.5.",
"5.5.6.6.2.2.2.2.6.6.6.6.6.2.2.2.2.6.6.6.6.4.2.2.2.2.2.7.7.7.7.7.2.6.6.6.6.5.5.5.5.6.6.6.2.2.2.2.6.6.6.2.2.2.2.2.2.6.6.6.6.6.6.6.",
"5.6.6.q.7.7.7.9.q.q.q.q.q.0.1.8.k.6.6.6.2.q.q.q.7.7.8.g.r.r.u.r.7.e.k.6.6.x.5.6.c.6.2.7.9.8.1.7.q.q.q.q.w.0.8.1.9.9.9.2.2.2.2.2.",
"6.6.q.w.8.r.8.0.w.q.q.q.q.0.t.t.l.k.9.9.9.9.9.9.w.w.g.g.g.g.g.g.r.d.a.a.0.7.w.9.0.0.0.0.0.0.1.0.w.q.w.w.0.a.g.0.0.8.0.9.9.9.q.9.",
"q.q.w.a.g.t.g.d.w.q.q.q.w.w.a.a.t.n.n.a.a.0.0.w.w.l.w.q.q.z.k.w.p.5X5XgXgX8X7X.Xu.u.t.a.w.l.l.l.l.l.l.w.w.w.w.d.a.a.a.0.w.w.w.w.",
"l.d.d.s.s.y.s.d.w.l.k.k.l.w.w.a.t.n.m.m.a.a.a.f.8.d.d.w.w.l.q.1.J.yXiXiXiXiXhX^.K.,.,.y.a.w.q.q.M.n.M.l.l.q.w.w.d.a.g.g.a.d.d.d.",
"d.f.s.s.i.y.s.d.M.l.l.l.l.l.M.M.l.l.l.M.a.s.y.y.&X6X8X8X6X8X8X5X].#.] C V ] ` #.].pX0X8X6X3XB.d.t.v.n.l.z.k.k.l.M.f.s.s.s.f.d.d.",
"s.s.h.i.i.i.s.f.M.M.M.M.M.M.M.M.z.k.l.M.m.i.p.H.dXlXhXhXhXhXhXiX'.N m v v v o o.[.yXiXkXjXgX;Xb.<.<.v.n.z.z.z.M.M.f.h.i.h.f.f.d.",
"V.V.V.V.h.h.V.V.f.N.N.N.f.f.s.N.z.k.l.N.;X,X0X^.L.@.` [ { ! ! { +.| $.;.*.%.o.%.' ' @.@.L.G.T.^.qXR.b.v.M.z.z.M.N.V.h.i.j.j.f.N.",
"V.V.V.V.V.V.V.V.h.h.h.i.i.p.p.i.N.N.m.$XgXkXiXyX} m . X : $   + N '.[.[.'.[.[.} c c c c x ] !.[.yXpXR.p.N.B.M.M.N.Z.j.j.V.Z.N.B.",
"N.Z.N.N.Z.Z.Z.V.i.p.%X|.<XfXJ.sXH.OX0X^.G.L.P.} } [ { o.o.[ [ o.*.| P.].].iXiX~.L.@.=.-.[ o.{ { %.L.^.OX$X3Xf.S.N.V.V.V.V.Z.B.B.",
"N.N.N.N.N.Z.Z.C.$X|.J.R.lXhXhXhXL._ ].yX( M C c *.!.[.].].yXyX].!.C C (.iXhXhXeXT.uXiX(.'.;.: : v x tXkX+Xp.h.Z.Z.Z.V.V.m.B.B.B.",
"N.N.N.N.N.Z.A.$XXXJ.qX`.U./.~.L.!.#.E.!.@.( @.( ~.yXhXhXhXkXkXiX{.v c Q.iXpXaXjXaXkXhX_.Q.%.D ~ W B =.).qX@XXXp.C.Z.Z.Z.B.B.B.B.",
"Z.Z.N.Z.Z.Z.A.%XJ.9XiX/.C x N N '.'.) M Q.yXtXiXhXhXkXkXkXjXjXhX{.A v I.tXeXqXjXkX9XuXU.M G >.W.W.E.B c (.hX9X|.$XA.Z.Z.S.Z.V.F.",
"C.C.Z.S.Z.Z.$X,X#X^.(.I.V B ` J E.'.( Z _.iXyXhXkXkXkXkXkXkXlX_.:.W G *._.uXeXqXkXT.uX).C ` &.o.&.!.` n *.(.`.0X*XA.Z.S.S.Z.C.$X",
"$X.XC.D.D.C.$X<XkXL.H ` *.E.!.*.N V =.].].wXwXeXuXkXkXeXuXuX`.H B o.!.(./.)._.eXeXwXtX/.!.*.n m :.*.;.;.R n ~.iX<X=XZ.S.D.A.$X%X",
"XXoX.X;X=XC.%X<XkXL.z V Q.!.!.:.n A %.!.!.(.tXwXuXhXhXwX_.tXQ.H C E.yX_.Y.U./._.Y.(.Q.%.W.&.m n !.>.;.>.A o :.iX<X=XZ.S.D.=X|.@X",
"OXoX.X;XD.C.%XsXhXU.x W E.*.I.E.;.>.` x $._._.)._.).)./._._.(.Q.(.Q.P.P././.Y.Y.Q.I.!.&.[  .Q Q  .>.O.^ D v =.hX5X=XZ.D.=X$X|.+X",
"+XXX=XD.S.Z.=XsXtXE.b D ;.>.Q.E.(.=.H H #.(._./.(.(.(.(.(.Q.Q.Q.Q.P.P.Q././.Q.Y.Q.Q.I.*.%.+. .! ^ / ^ ! R H G.jX,X;X=XA.A.$X.XoX",
"+X.XD.D.S.Z.=X5XiX$.. A O.%.!.(.(.!.Q.P.~.!.(.Q.Q.Q.Q.Q.Q.Q.Q.E.!.Q.I.*.I.*.*.%.*.*.&.%.o.o.O.^ / I * A =.).9X<X,X;X=X=X$X$X$X&X",
"XX.X=XD.S.Z.=X<XhX#.n R o.%.E.*.*.:.E.E.E.E.E.E.E.Q.Q.Q.Q.Q.~.E.&.;.;.%.%.&.&.&.o.O.X.X.X.X.X.^ > I & m !.iXrX|.-X=X=X=X=X=X;X:X",
"%X$X=X;XD.A.=X,X9X`.Q.$.B ` E.*.;.&.O.%.;.;.$.' *.:.E.E.E.E.=.$.Q X.O.! U U Y D D S F F - > > > > I @ o E.iX0XXX-X=X=X=X=X=X;X;X",
"-X;X=X=XD.D.;X*XH.rXhX~.M B *.W.;.O...O.O...W A o.&.;.:.:.*.$.R A T / Y = = - * - - ; ; % % % % > L o Z ~.iX0X,X-X=X=X=X=X=X-X-X",
";X;X;X;X;X;X;X&X1XXXsXpXU.#.G G A S Y ! ! E E ! ..&.;.;.;.;.+.R = P I > = = = ; * * * * % % % * @ K | >.`.^.OX,X=X=X=X=X=X=X-X-X",
"=X=X;X&X&X&X;X=X6Xi..XsXhX].B o + O & S S S E X.^ X.X...X.O.^ U P > - ; & # # X X X X X X # # O o K '.yXqXR.XX.X=X=X=X=X=X=X=X=X",
"D.=X;X&X*X*X;X=Xj.A.4X%X0X_.@.%.O.! U A & & U / T T T Y Y E T = * & & = U E ..O.O.o.%.%.%.%.%.=.#._ ^.rXJ.OX6X.X=X=X=X=X=X=X=X=X",
"D.=X;X*X%X%X-X=XD.D.D.=X+XqX].[.{.W.R o + & A S = = - > P - * $ X O + o n &.[.[.yXiXiXiXhXhXhXhXkXlX0XOX+X*X:X:X;X;X;X;X;X&X:X&X",
"D.D.;X*X%X%X-X=XD.D.D.=X%X#XeX].yX'.#.` }  .L A U * * * * * - E W } } ' #.U.`.^.pXaXdXdXfXfXfXfXfXzX2X>X*X:X:X;X;X;X;X&X&X&X*X*X",
"D.=X;X&X%X%X-X=XD.D.D.;X:X+X9X^.hXiXiXyX[.'.' v b + + O X X U >.].yXiXiXhXlX0X@X+X>X-X-X-X-X-X-X1X1X-X-X:X;X;X=X;X&X&X&X&X&X&X&X",
"D.=X;X&X*X*X:X;XD.D.D.=X;X%X+X@XsXdXrXiXiXtX#.) ) R R ' R R +.!.tXuXuXlXdX<X+X%X-X-X=X=X=X=X=X=X-X-X-X-X;X;X;X=X=X;X&X&X&X&X*X*X",
"=X=X;X&X&X&X:X;X=X=X;X=X;X;X-X:X*X,XXXJ.#X9XqXiXiXiXiXiXiXyXtX^.9X X X>X>X$X$X;X;X;X;X;X;X;X;X;X;X=X=X;X;X;X;X;X;X;X;X&X;X;X;X;X",
";X;X;X;X:X:X:X:X;X;X;X=X;X=X;X;X;X:X:X%X+X+XsXjXjXjXjXjXjXjXfX+X2X%X-X1X4X;X;X3XD.D.;X;X=X;X;X;X;X;X;X;X=X;X;X;X;X;X;X;X;X;X;X;X",
";X;X;X;X;X;X:X:X:X:X;X;X;X;XD.D.Z.=X;X;X:X$X|.%X%X%X%X$X;X;X;X=X=X=X=X;X;XD.D.D.D.D.=X=X;X&X%X&X;X;X;X;X;X;X;X;X&X;X;X;X;X;X;X;X",
";X;X;X;X;X;X:X:X&X:X:X;X;X;XD.D.3X;XA.=X4X;X=X:X:X;X;X;X;XA.D.3X;X;X;XD.D.;X3X3X;X;X;X;X&X*X*X*X$X&X;X4X;X;X;X;X;X;X;X;X;X;X;X;X",
";X;X;X;X;X;X;X:X:X:X;X;X;X;X;X;X;X;X;X;X;X;X;X;X;X;X;X;X;X;X;X;X;X;X;X;X;X;X;X;X;X;X;X;X;X:X:X:X;X;X;X;X;X;X;X;X;X;X;X;X;X;X;X;X",
";X;X;X;X;X;X;X;X;X;X;X;X;X;X;X;X;X;X;X;X;X;X;X;X;X;X;X;X;X;X;X;X;X;X;X;X;X;X;X;X;X;X;X;X;X;X;X;X;X;X;X;X;X;X;X;X;X;X;X;X;X;X;X;X",
";X;X;X;X;X;X;X;X;X;X;X;X;X;X;X;X;X;X;X;X;X;X;X;X;X;X;X;X;X;X;X;X;X;X;X;X;X;X;X;X;X;X;X;X;X;X;X;X;X;X;X;X;X;X;X;X;X;X;X;X;X;X;X;X",
";X;X;X;X;X;X;X;X;X;X;X;X;X;X;X;X;X;X;X;X;X;X;X;X;X;X;X;X;X;X;X;X;X;X;X;X;X;X;X;X;X;X;X;X;X;X;X;X;X;X;X;X;X;X;X;X;X;X;X;X;X;X;X;X",
";X;X;X;X;X;X;X;X;X;X;X;X;X;X;X;X;X;X;X;X;X;X;X;X;X;X;X;X;X;X;X;X;X;X;X;X;X;X;X;X;X;X;X;X;X;X;X;X;X;X;X;X;X;X;X;X;X;X;X;X;X;X;X;X",
";X;X;X;X;X;X;X;X;X;X;X;X;X;X;X;X;X;X;X;X;X;X;X;X;X;X;X;X;X;X;X;X;X;X;X;X;X;X;X;X;X;X;X;X;X;X;X;X;X;X;X;X;X;X;X;X;X;X;X;X;X;X;X;X",
";X;X;X;X;X;X;X;X;X;X;X;X;X;X;X;X;X;X;X;X;X;X;X;X;X;X;X;X;X;X;X;X;X;X;X;X;X;X;X;X;X;X;X;X;X;X;X;X;X;X;X;X;X;X;X;X;X;X;X;X;X;X;X;X",
";X;X;X;X;X;X;X;X;X;X;X;X;X;X;X;X;X;X;X;X;X;X;X;X;X;X;X;X;X;X;X;X;X;X;X;X;X;X;X;X;X;X;X;X;X;X;X;X;X;X;X;X;X;X;X;X;X;X;X;X;X;X;X;X",
";X;X;X;X;X;X;X;X;X;X;X;X;X;X;X;X;X;X;X;X;X;X;X;X;X;X;X;X;X;X;X;X;X;X;X;X;X;X;X;X;X;X;X;X;X;X;X;X;X;X;X;X;X;X;X;X;X;X;X;X;X;X;X;X",
";X;X;X;X;X;X;X;X;X;X;X;X;X;X;X;X;X;X;X;X;X;X;X;X;X;X;X;X;X;X;X;X;X;X;X;X;X;X;X;X;X;X;X;X;X;X;X;X;X;X;X;X;X;X;X;X;X;X;X;X;X;X;X;X",
";X;X;X;X;X;X;X;X;X;X;X;X;X;X;X;X;X;X;X;X;X;X;X;X;X;X;X;X;X;X;X;X;X;X;X;X;X;X;X;X;X;X;X;X;X;X;X;X;X;X;X;X;X;X;X;X;X;X;X;X;X;X;X;X",
";X;X;X;X;X;X;X;X;X;X;X;X;X;X;X;X;X;X;X;X;X;X;X;X;X;X;X;X;X;X;X;X;X;X;X;X;X;X;X;X;X;X;X;X;X;X;X;X;X;X;X;X;X;X;X;X;X;X;X;X;X;X;X;X",
";X;X;X;X;X;X;X;X;X;X;X;X;X;X;X;X;X;X;X;X;X;X;X;X;X;X;X;X;X;X;X;X;X;X;X;X;X;X;X;X;X;X;X;X;X;X;X;X;X;X;X;X;X;X;X;X;X;X;X;X;X;X;X;X",
";X;X;X;X;X;X;X;X;X;X;X;X;X;X;X;X;X;X;X;X;X;X;X;X;X;X;X;X;X;X;X;X;X;X;X;X;X;X;X;X;X;X;X;X;X;X;X;X;X;X;X;X;X;X;X;X;X;X;X;X;X;X;X;X",
";X;X;X;X;X;X;X;X;X;X;X;X;X;X;X;X;X;X;X;X;X;X;X;X;X;X;X;X;X;X;X;X;X;X;X;X;X;X;X;X;X;X;X;X;X;X;X;X;X;X;X;X;X;X;X;X;X;X;X;X;X;X;X;X",
";X;X;X;X;X;X;X;X;X;X;X;X;X;X;X;X;X;X;X;X;X;X;X;X;X;X;X;X;X;X;X;X;X;X;X;X;X;X;X;X;X;X;X;X;X;X;X;X;X;X;X;X;X;X;X;X;X;X;X;X;X;X;X;X"
};
