/* XPM */
static char *_2b4fb34276140b09dc14d3ddb89daceUzx6qZHy6ShZFLTg[] = {
/* columns rows colors chars-per-pixel */
"64 64 228 2 ",
"   c #03000D",
".  c #0A040D",
"X  c #050114",
"o  c #0C0115",
"O  c #04031B",
"+  c #0D021B",
"@  c #090918",
"#  c #130115",
"$  c #1A0116",
"%  c #15021E",
"&  c #1A011D",
"*  c #1C091E",
"=  c #160A1E",
"-  c #21011D",
";  c #0E0322",
":  c #150322",
">  c #1B0324",
",  c #140822",
"<  c #1B0924",
"1  c #160429",
"2  c #1E0529",
"3  c #1D0829",
"4  c #12082A",
"5  c #1D0232",
"6  c #210325",
"7  c #230A27",
"8  c #21042A",
"9  c #29062E",
"0  c #23092B",
"q  c #2C0C2B",
"w  c #2C0626",
"e  c #2C132B",
"r  c #34132C",
"t  c #311025",
"y  c #240333",
"u  c #2B0634",
"i  c #240932",
"p  c #2B0A33",
"a  c #26023B",
"s  c #2C053A",
"d  c #2C0A3C",
"f  c #270D3D",
"g  c #340634",
"h  c #330B34",
"j  c #3B0C34",
"k  c #34063D",
"l  c #330B3C",
"z  c #3B0B3C",
"x  c #3C073B",
"c  c #2B1337",
"v  c #331333",
"b  c #3B1435",
"n  c #3A1A36",
"m  c #34133B",
"M  c #3C133D",
"N  c #331A3A",
"B  c #3C193A",
"V  c #350E29",
"C  c #440E3E",
"Z  c #43133C",
"A  c #44183A",
"S  c #4A1B3E",
"D  c #471337",
"F  c #340541",
"G  c #340C42",
"H  c #3C0D43",
"J  c #3B0C49",
"K  c #3E0441",
"L  c #3B1243",
"P  c #3C1846",
"I  c #2D1343",
"U  c #470D4B",
"Y  c #441344",
"T  c #4B1444",
"R  c #421B44",
"E  c #4B1C43",
"W  c #44144C",
"Q  c #4B154C",
"!  c #4B1B4B",
"~  c #531C43",
"^  c #52174C",
"/  c #521C4D",
"(  c #551A47",
")  c #421351",
"_  c #4C1453",
"`  c #4C155A",
"'  c #4C1B54",
"]  c #541A54",
"[  c #541C5C",
"{  c #5C1B5B",
"}  c #591956",
"|  c #631E5D",
" . c #691E5E",
".. c #621F52",
"X. c #721E5C",
"o. c #621D4A",
"O. c #4C2344",
"+. c #48234F",
"@. c #53254D",
"#. c #5C234C",
"$. c #582746",
"%. c #5C2353",
"&. c #59205D",
"*. c #62254A",
"=. c #642454",
"-. c #692454",
";. c #652B52",
":. c #6B2B55",
">. c #63225B",
",. c #6A245F",
"<. c #642C5B",
"1. c #6C2B5C",
"2. c #752F5C",
"3. c #7B2F5D",
"4. c #712956",
"5. c #653250",
"6. c #6C3253",
"7. c #68325A",
"8. c #733356",
"9. c #75335C",
"0. c #79365F",
"q. c #561A60",
"w. c #641F64",
"e. c #691F74",
"r. c #5C2463",
"t. c #672261",
"y. c #692163",
"u. c #662069",
"i. c #6B246A",
"p. c #6C2D66",
"a. c #752C66",
"s. c #792D64",
"d. c #75266E",
"f. c #732A6C",
"g. c #78296A",
"h. c #7B3465",
"j. c #74316C",
"k. c #7C326B",
"l. c #733464",
"z. c #6C2573",
"x. c #6E2B70",
"c. c #722771",
"v. c #742A75",
"b. c #7B2A73",
"n. c #79287A",
"m. c #7C317A",
"M. c #7D3974",
"N. c #81365D",
"B. c #852F6C",
"V. c #843465",
"C. c #823A65",
"Z. c #85326C",
"A. c #8B356C",
"S. c #8A3B6C",
"D. c #873867",
"F. c #933D6D",
"G. c #9A3F69",
"H. c #842E74",
"J. c #823373",
"K. c #8B3A74",
"L. c #84357B",
"P. c #8E3579",
"I. c #8D3A7B",
"U. c #883877",
"Y. c #933B73",
"T. c #923C7A",
"R. c #9B3E7B",
"E. c #943778",
"W. c #A63E7D",
"Q. c #8A4263",
"!. c #8D426C",
"~. c #84446A",
"^. c #94436B",
"/. c #8E4379",
"(. c #9D4574",
"). c #94447D",
"_. c #9B437C",
"`. c #9B4B7C",
"'. c #994772",
"]. c #9E5171",
"[. c #A24674",
"{. c #A24B7D",
"}. c #AA4979",
"|. c #B14C7B",
" X c #AE517D",
".X c #B6547D",
"XX c #7E2881",
"oX c #983C83",
"OX c #A23F81",
"+X c #A83F82",
"@X c #974583",
"#X c #AD4A84",
"$X c #A64684",
"%X c #B24D84",
"&X c #B24B8D",
"*X c #BE4D8B",
"=X c #B74A85",
"-X c #AD5184",
";X c #AB518F",
":X c #B25385",
">X c #BC5987",
",X c #BE548D",
"<X c #BC5B89",
"1X c #B65388",
"2X c #B74B95",
"3X c #BE5194",
"4X c #BC6087",
"5X c #C2538B",
"6X c #C35C8D",
"7X c #C75A8B",
"8X c #CC5B92",
"9X c #CC5A99",
"0X c #C55894",
"qX c #D75D9A",
"wX c #CD608A",
"eX c #D3608B",
"rX c #C96294",
"tX c #DD639C",
"yX c #D66597",
"uX c #E0659C",
"iX c #E36B9A",
"pX c #EB6D9E",
"aX c #D564A3",
"sX c #DE67A1",
"dX c #E16AA6",
"fX c #E972A7",
"gX c #F774AB",
"hX c #FF80B2",
/* pixels */
"2 2 2 2 2 > 2 2 2 > < < > 2 > 2 8 2 3 2 8 2 2 8 > 6 8 < 3 2 2 < > 2 2 2 2 2 2 8 2 2 2 > > 2 2 2 2 2 2 2 : : < < 2 2 2 2 8 2 2 2 ",
"2 2 2 > > > 2 2 2 2 2 2 : : 2 2 6 2 2 8 2 : < 6 3 2 8 > > : 2 > 2 > 2 2 2 > : 2 2 2 8 2 2 2 2 2 2 2 > : : & : : : : : 2 2 2 : : ",
"2 2 2 > > > 2 2 2 6 6 2 : : 6 : 8 2 8 6 6 7 3 : > : : > 6 % : 8 8 2 8 2 > : % * 2 2 2 2 2 2 2 2 2 2 2 2 : : & % % % % * * & % % ",
"2 2 > > : : : : > 2 3 < : : 3 9 2 < 2 6 6 > > 2 8 8 0 & % % : 8 8 2 2 2 2 : & : 2 : : : > > 2 2 2 2 2 2 : > > & : & & % % % % % ",
"2 2 2 > : % : > 3 > 9 9 2 8 > : 2 2 2 3 : : : % : & > % % % 2 > 2 > : < 2 > > > > > % % % % > > 2 : : % & 2 8 2 > > 2 : : : : : ",
"2 2 2 2 2 > > > < : % % % : : 8 : 8 6 & % % % > + < % % > & 2 < > % % > 2 2 2 2 > > % % % % % % % % % % : > 2 > 2 2 2 2 2 2 > > ",
": : 2 2 2 2 2 > X > E ~.;.h : + 3 % % + o % * % # % : : & & & % : % % & : : > 2 2 > > : : % % % % % % > > : : & > 2 2 2 2 2 2 2 ",
"% % % > 2 > : & V 6XqX7XrXqX}.7.%X`.A $ 6.<X8XrX~.- % , + : % & > : : % % % : 2 0 2 2 8 2 : : : > : % % % % & & & > & % % : > 2 ",
"& % % # : > o   (.#X,.Y Q { ] E.} | @X[.qX9X_.| 5X'.X O   & : : 2 > % > % % : 2 & 2 > % 2 6 > : 8 > < % % % % : & % % : : > & % ",
"= % % * o + B Q.sXJ.' _ J 8 Y ;X>X-.K b.T.5XyX:XT {.[.G.*.O : > : & % % % > > > 0 2 < : % % & > < 6 : < : & > % ; < % % * & % : ",
"% : : # r 8XsX[.}.qXm.n.J.M k { U.gXO.) b.b.H.iX<X> W j.qXN.o : : : > % % > & o o % & & 6 % , o o X o 6 % o % O % & o , % % > % ",
"% : & $ :X#Xs.2 y k.b.i.=XpX( u z.%X#.1 +.z.z.-X:.W y f d.$Xq # % % % & % + > -.9.B o o o O % @.5.4.S + 2 %.;.;.-X%XA o > 2 : 2 ",
"& & # ;.3X[ b.{ 0 k w.x.t.uX<Xs i.L s ' | i.I.8XG d.Q ,.v.[ 3 & & & % % > h._.).A.Y.;.b $. X.X}.P.OX{.3.V._.b.b.a.l.,X0.o % : : ",
": *   D.@Xv.z.d G i.r.i.I.fXwXu J u M d.XXi.*XQ.9 ] c.i.W 0 + : % : + Z S.k.g i 5 H L.H.J.I.oX2Xk.8 H i.[ d s l k s Q #XF.o * & ",
"% : # r >.] L 6 l [.5X0XfXiX:.y 0 < 3 k _ U Y : & 8 d a 0 % > % > % & > 0 % % 3 8 2 i p y s k d h 8 i f s i 2 8 3 u 2 9 h % & # ",
"& : % % % > & % : 0 ! ,.%.j 6 8 % $ : % # % + % 1 % % % $ & % % : : % , + * > % % % % % % % # $ % % % $ $ * + % % % % % % > : : ",
"% % % % % % % % % % % % % % % % % % % % % % % % % % % % % % % % % % % % % % % % % % % % % % % % % % % % % % % % % % % % % % % % ",
"% % % % % % % % % % % % % % % % % % % % % % % % % % % % % % % % % % % % % % % % % % % % % % % % % % % % % % % % % % % % % % % % ",
"% % % % % % % % % % % % % % % % % % % % % % % % % % % % % % % % % % % % % % % % % % % % % % % % % % % % % % % % % % % % % % % % ",
"% % % % % % % % % % % % % % % % % % % % % % % % % % % % % % % % % % % % % % % % % % % % % % % % % % % % % % % % % % % % % % % % ",
"% % % % % % % % % % % % % % % % % % % % % % % % % % % % % % % % % % % % % % % % % % % % % % % % % % % % % % % % % % % % % % % % ",
"% % % % % % % % % % % % % % % % % % % % % % % % % % % % % % % % % % % % % % % % % % % % % % % % % % % % % % % % % % % % % % % % ",
"% % % % % % % % % % % % % % % % % % % % % % % % % % % % % % % % % % % % % % % % % % % % % % % % % % % % % % % % % % % % % % % % ",
"% % % % % % % % % % % % % % % % % % % % % % % % % % % % % % % % % % % % % % % % % % % % % % % % % % % % % % % % % % % % % % % % ",
"% % % % % % % % % & & % % % % % & % + : & + % % % & & % % % % : % % % % % % % % : + % & & : & * * & & + > 1 ; $ % % % % % % % % ",
"% % % % % % % % & % : 6 > % & & : & & % % > 0 : > + % : % & : % % % % % % % % % > % % & % : + o o O % % > % % > % % % % % % % % ",
"% % % % % % % % : % % + % % 6 + X o * > & o   # % - 6 % % : % & % % % % % % % % % % & % % X b D.Y.9.* + : : % + % % % % % % % % ",
"% % % % % % % % : : # & + 6 % % $.F.6X5X4XQ.8.v X % & * : + & & % % % % % % % % % : : % o S :X2.r.A.<Xq % % % - % % % % % % % % ",
"% % % % % % % % : % 6 % > % e :X#Xk.f.b.m.P.%X1XC.* o % % % 2 % % % % % % % % % % % : & o ^.D.$X#XZ Y.D.  > : : % % % % % % % % ",
"% % % % % % % % % % : : o e 5Xa.a I T T 2 y a P 0X-X$ o > : % : % % % % % % % % : % % + 3 F.s.K./ U ,.9.  * % & % % % % % % % % ",
"% % % % % % % % & > % + 7 1X/ 2 G.yXyXpX:X8 Q c. .+X7.o : % > % % % % % % % % % % & % 6 D.Y L l @.R o.@.v > + * % % % % % % % % ",
"% % % % % % % % > + & o -.1.2 *XyXT.c.oXtX|.Y _ v.| #XE X 6 % % % % % % % % % % : % o O.Z.H H H Y.9X<.A.5X^.o : % % % % % % % % ",
"% : : % > % % % % > # r (.y ! }.[ t.f.u.g.dXiX~ L n.L.'.@ % & > % % % % % % % % & % : q _.] a s ` <.h U i.K.% + o % % : % % % & ",
"& % & & % & % % # % O $X1.5 y 5 a s W b.i.Z.fX(.0 u H &XD o 6 % & & & % & > % % & % #   8.=.H L  .y 1.%.f X.C.1X7.& + % & % % % ",
"% % % % % % > & 0 $ 8.$Xk g p i Y l 2 W i.z p C.tX}.( { :.o + @ % % % % % % % : % % O.n #.$XQ 8 Y F B.,Xy k s.=.S.q o % & * % & ",
"% % % % % % & > h !.6XC y u g T G y.] i p y s H ^ `.tX[.9.R / m : % % % % % % > o Z 9X).T.] z R.).i.@XS.y _ s.$Xg 0 % > & % % > ",
": : : % > E C 1.5X0XK.l s l f.b.[ c.u.u i &.} s { u.1XhX0XW Q Q l L P 6 : % : % % v E h k 3 c ( T ! %.b 8 T z ..c 2 & # % % > & ",
"& & : & : m 9 R :.N 8 : < p c l C m 9 2 8 L 0 6 m k L ~ #.8 1 > 8 p m > % % % % > o o & O , # % + $ o % > o o + : % : % % % % % ",
"& & % % % % % % + o % + # % # $ # o % % % + o # % o + X . $ & # : % % % : : % % : > # % & % & % > & * % % % & > & > % : % : % % ",
"% % % > % > & % # & > : % & , % & : : & & > ; > : & & : > : % * & % % % % : % > : & , > : > % : & : : % 1 : % : % % % & : % : & ",
"% % % % % % % % % % % % % % % % % % % % % % % % % % % % % % % % % % % % % % % % % % % % % % % % % % % % % % % % % % % % % % % % ",
"% % % % % % % % % % % % % % % % % % % % % % % % % % % % % % % % % % % % % % % % % % % % % % % % % % % % % % % % % % % % % % % % ",
"% % % % % % % % % % % % % % % % % % % % % % % % % % % % % % % % % % % % % % % % % % % % % % % % % % % % % % % % % % % % % % % % ",
"% % % % % % % % % % % % % % % % % % % % % % % % % % % % % % % % % % % % % % % % % % % % % % % % % % % % % % % % % % % % % % % % ",
"% % % % % % % % % % % % % % % % % % % % % % % % % % % % % % % % % % % % % % % % % % % % % % % % % % % % % % % % % % % % % % % % ",
"% % % % % % % % % % % % % % % % % % % % % % % % % % % % % % % % % % % % % % % % % % % % % % % % % % % % % % % % % % % % % % % % ",
"% % % % % % % % % % % % % % % % % % % % % % % % % % % % % % % % % % % % % % % % % % % % % % % % % % % % % % % % % % % % % % % % ",
"% % % % % % % % % % % % % % % % % % % % % % % % % % % % % % % % % % % % % % % % % % % > > % % % % % % % % % % % % % % % % % % % ",
"% & : % & + % % : % > & % & : : % * % : > & % > & & $ % : % % % : % % + % & % : + * + X X o : & : : : % % & : : > : : % & % % : ",
"& , > % : & & % # % O , : % % & > O % # + + + : , : 4 : % % % : % % > > & & % & % o b 5.8.*.o : & % & % # % * + % + : > % % > % ",
"& % % > > : % & 2 > : # $ % % > X $..X-X.X].q % % : : 6 % - % 1 % > % % : : : : % S (.P.oXdX8.% * # % : : % % % & > + & : % % > ",
": % < % : > % @ O o # + 8 b = X :.5XH.L.P.*XeXq X o # o # & : : % % : 2 : % % # j 1XN.=.h ] 8X* . % o % 6 > < > * % % % : % > % ",
"> > > , : 2 % q ~ n 7 A {.*X-X(.&Xj.3.,.` w.oX>X~ $.}.{.e @ : & % % % % * & # X !.J.a.0XuXQ ,.6.N B ~ r X   o o X + & & : : & % ",
"2 > : > > o S 0X#XS.h.}.T.r.r.} Z.,XOX_.!.z s Y p.R.P.2XyXt % 6 : & > : % o < 9.Y.y ) H :.! k M y./.W.,X;.$.*.S.=.% # % : : % = ",
"% > ; & o w 9XI.e.G f U ` / N.V.#.[ ` [ y.V.(.%Xh.Z ) W *X|.+ X > & & + o 3.0X<.k g i #.F.'.J._ 5 ,.a./ Y >.k.%.E.l.# % % : % % ",
"# % : >   5.aXw.! x _.%Xl.k.&X8X!.u q.b.D.K.U.E.6XyXT ' D.%XK.$.: & , o w =.x f p.J >.gXR.m.v.Y D aX&X%.>.F a _ 2 A.6.X % 6 : & ",
"< < : : % B 7.x 2 R ^ -./.=.z d p ! ] } M.T Y W Y ! T / *.h.2.C.7 & % % % : 2 q l 6 b O.q h m 6 b @.j l M M 6 v 0 9 P : 2 : : % ",
"8 6 > > : % > > : % + o o X % % % % + % % # : > : > : % + + X o : & % % % : & % + % o o % : : 1 : : : 3 : : : % > > 2 > > 2 : 2 ",
"> 8 8 2 6 2 < 3 : 0 0 > * % % % $ & : % o & > 6 8 8 8 2 : < % < 2 2 > % : > & % % % > & : 2 2 & : > 8 2 0 > : : 2 : % 2 2 2 2 2 ",
"< % : : : 2 2 6 3 2 2 % : < : : % : : + < % % 3 3 < < 2 : & > 6 2 > % % : : : > % & > : > 2 2 & : 2 2 2 8 2 : 2 > % : % 2 > 8 > ",
"& % % > > % % * > : 0 : > 2 8 8 2 3 > > > > > 2 > & : 2 2 > 8 2 : > & % : 2 2 > : < < : 0 2 2 2 > < : 2 > 2 2 2 : : % % > 8 2 > ",
"% > & & > % % % % % > & 6 2 2 0 > 2 > 8 2 2 8 > > : & < 2 < 2 < 2 > & : 2 2 2 2 2 > 8 0 0 2 2 > 2 2 : & 2 2 > 6 3 2 2 2 > 2 > 2 ",
"< > : 6 > : : % > % % > : 2 8 > > 6 2 > 8 > 6 > 2 2 : > 2 6 8 6 8 > : > > > > 8 2 2 : > 2 2 > 0 2 : > : : > 0 2 > > 8 > 2 > 2 8 ",
"6 > 2 3 2 2 > 2 0 2 : 2 > 0 2 > 2 > 2 8 2 2 2 < > 2 > 2 2 2 2 2 2 2 2 2 2 8 2 > 2 2 > 6 > 8 2 > 2 2 > 2 : 2 2 2 8 8 > 2 2 8 2 > "
};
