/* XPM */
static char *_db777ce97a14fd9ef5fbb8970e3c262DpoczI3Vy5ELlech[] = {
/* columns rows colors chars-per-pixel */
"76 64 173 2 ",
"   c #010101",
".  c #080705",
"X  c #020B06",
"o  c #03050A",
"O  c #090A0B",
"+  c #100F0D",
"@  c #11100E",
"#  c #0C0F12",
"$  c #0F1014",
"%  c #131315",
"&  c #191B17",
"*  c #141519",
"=  c #15191C",
"-  c #1C1C1D",
";  c #1C1E21",
":  c #231D23",
">  c #1D2124",
",  c #232323",
"<  c #25272B",
"1  c #24282B",
"2  c #2B2D2C",
"3  c #2E302D",
"4  c #272E34",
"5  c #2C2D32",
"6  c #2D363F",
"7  c #333335",
"8  c #393A35",
"9  c #32363A",
"0  c #383639",
"q  c #35393F",
"w  c #3B3B39",
"e  c #403F3D",
"r  c #2F3841",
"t  c #333741",
"y  c #333943",
"u  c #3F4044",
"i  c #434346",
"p  c #43464D",
"a  c #45484D",
"s  c #4A484D",
"d  c #535455",
"f  c #53575C",
"g  c #53585C",
"h  c #5A585D",
"j  c #B2B2B4",
"k  c #BEC2C4",
"l  c #BFC3CC",
"z  c #BAC8D5",
"x  c #BCC9DA",
"c  c #BECEE6",
"v  c #B6CCEA",
"b  c #C3C1C4",
"n  c #C2C4CC",
"m  c #C7CBCE",
"M  c #CBCDCD",
"N  c #D6D1CE",
"B  c #C3CAD1",
"V  c #CACDD2",
"C  c #C0CDDE",
"Z  c #CDD1D6",
"A  c #CBD2DA",
"S  c #D3D2D3",
"D  c #D7D9D6",
"F  c #D1D5D9",
"G  c #D4D8DC",
"H  c #DDDDDD",
"J  c #E4E3DF",
"K  c #C4D4E3",
"L  c #D2D9E1",
"P  c #D9DEE4",
"I  c #C7DCF4",
"U  c #C4DEFD",
"Y  c #CADEFC",
"T  c #CDE3F6",
"R  c #C5E0FE",
"E  c #CDE3FD",
"W  c #CEE8FE",
"Q  c #D3E2F5",
"!  c #D7E9F7",
"~  c #DEE8F4",
"^  c #D2E3FD",
"/  c #DCE7FD",
"(  c #D1E9FF",
")  c #DAEAFD",
"_  c #E2E2E2",
"`  c #E8E7E3",
"'  c #E6E9E4",
"]  c #E8E8E6",
"[  c #E2E7ED",
"{  c #E8E6EB",
"}  c #EBEAE9",
"|  c #EDF0ED",
" . c #F1F1EF",
".. c #E6ECF3",
"X. c #E9EEF5",
"o. c #E7EFF9",
"O. c #EAEEFA",
"+. c #E7F5F6",
"@. c #EAF2F5",
"#. c #E7F1FA",
"$. c #EFF6FF",
"%. c #EFF6FE",
"&. c #EDF4FE",
"*. c #ECF3FD",
"=. c #EFFEFB",
"-. c #EFF9FF",
";. c #F1F1F1",
":. c #F3F3F3",
">. c #F5F5F5",
",. c #FAF6F5",
"<. c #F3FCF7",
"1. c #FEFFF7",
"2. c #FDFDF6",
"3. c #F2F5FA",
"4. c #F0F4FD",
"5. c #F1F5FF",
"6. c #F0F4FF",
"7. c #F0F7FF",
"8. c #F0F6FF",
"9. c #F3F7FF",
"0. c #F2F5FD",
"q. c #F4F8FB",
"w. c #F4FAFA",
"e. c #F5FEF9",
"r. c #F1F8FF",
"t. c #F2F9FF",
"y. c #F5F9FF",
"u. c #F4FBFF",
"i. c #F3FCFF",
"p. c #F5FCFF",
"a. c #F7FEFF",
"s. c #F6FEFD",
"d. c #F9F9F9",
"f. c gray98",
"g. c #FBFBFB",
"h. c snow",
"j. c #FBFDFA",
"k. c #F9FFFB",
"l. c #FEFDF9",
"z. c #FDFDFB",
"x. c #FFFDFB",
"c. c #FFFFFA",
"v. c #FFFEFB",
"b. c #FFFFFB",
"n. c #FBFBFD",
"m. c #FCFAFD",
"M. c #FFFAFF",
"N. c #FBFDFC",
"B. c #FBFCFE",
"V. c #F8FFFF",
"C. c #F9FFFF",
"Z. c #F9FEFF",
"A. c #FAFFFF",
"S. c #FBFFFF",
"D. c gray99",
"F. c #FDFDFD",
"G. c #FDFFFC",
"H. c #FCFFFD",
"J. c #FEFEFC",
"K. c #FEFFFD",
"L. c #FFFFFD",
"P. c #FCFDFF",
"I. c #FCFCFE",
"U. c #FFFDFE",
"Y. c #FEFCFF",
"T. c #FFFCFF",
"R. c #FDFFFE",
"E. c #FCFFFF",
"W. c #FEFEFE",
"Q. c #FFFEFF",
"!. c #FEFFFF",
"~. c white",
"^. c #FDFEFE",
/* pixels */
"*.*.*.*.*.*.*.*.*.*.*.*.*.*.*.*.*.*.*.*.*.*.*.*.*.*.*.*.*.*.*.*.*.*.*.*.*.*.*.*.*.*.*.*.*.*.*.*.*.*.*.*.*.*.*.*.*.*.*.*.*.*.*.*.*.*.*.*.*.*.*.*.*.*.*.*.",
"*.*.*.*.*.*.*.*.*.*.*.*.*.*.*.*.*.*.*.*.*.*.*.*.*.*.*.*.*.*.*.*.*.*.*.*.*.*.*.*.*.*.*.*.*.*.*.*.*.*.*.*.*.*.*.*.*.*.*.*.*.*.*.*.*.*.*.*.*.*.*.*.*.*.*.*.",
"*.*.*.*.*.*.*.*.*.*.*.*.*.*.*.*.*.*.*.*.*.*.*.*.*.*.*.*.*.*.*.*.*.*.*.*.*.*.*.*.*.*.*.*.*.*.*.*.*.*.*.*.*.*.*.*.*.*.*.*.*.*.*.*.*.*.*.*.*.*.*.*.*.*.*.*.",
"*.*.*.*.*.*.*.*.*.*.*.*.*.*.*.*.*.*.*.*.*.*.*.*.*.*.*.*.*.*.*.*.*.*.*.*.*.*.*.*.*.*.*.*.*.*.*.*.*.*.*.*.*.*.*.*.*.*.*.*.*.*.*.*.*.*.*.*.*.*.*.*.*.*.*.*.",
"*.*.*.*.*.*.*.*.*.*.*.*.*.*.*.*.*.*.*.*.*.*.*.*.*.*.*.*.*.*.*.*.*.*.*.*.*.*.*.*.*.*.*.*.*.*.*.*.*.*.*.*.*.*.*.*.*.*.*.*.*.*.*.*.*.*.*.*.*.*.*.*.*.*.*.*.",
"*.*.*.*.*.*.*.*.*.*.*.*.*.*.*.*.*.*.*.*.*.*.*.*.*.*.*.*.*.*.*.*.*.*.*.*.*.*.*.*.*.*.*.*.*.*.*.*.*.*.*.*.*.*.*.*.*.*.*.*.*.*.*.*.*.*.*.*.*.*.*.*.*.*.*.*.",
"*.*.*.*.*.*.*.*.*.*.*.*.*.*.*.*.*.*.*.*.*.*.*.*.*.*.*.*.*.*.*.*.*.*.*.*.*.*.*.*.*.*.*.*.*.*.*.*.*.*.*.*.*.*.*.*.*.*.*.*.*.*.*.*.*.*.*.*.*.*.*.*.*.*.*.*.",
"*.*.*.*.*.*.*.*.*.*.*.*.*.*.*.*.*.*.*.*.*.*.*.*.*.*.*.*.*.*.*.*.*.*.*.*.*.*.*.*.*.*.*.*.*.*.*.*.*.*.*.*.*.*.*.*.*.*.*.*.*.*.*.*.*.*.*.*.*.*.*.*.*.*.*.*.",
"*.*.*.*.*.*.*.*.*.*.*.*.*.*.*.*.*.*.*.*.*.*.*.*.*.*.*.*.*.*.*.*.*.*.*.*.*.*.*.*.*.*.*.*.*.*.*.*.*.*.*.*.*.*.*.*.*.*.*.*.*.*.*.*.*.*.*.*.*.*.*.*.*.*.*.*.",
"*.*.*.*.*.*.*.*.*.*.*.*.*.*.*.*.*.*.*.*.*.*.*.*.*.*.*.*.*.*.*.*.*.*.*.*.*.*.*.*.*.*.*.*.*.*.*.*.*.*.*.*.*.*.*.*.*.*.*.*.*.*.*.*.*.*.*.*.*.*.*.*.*.*.*.*.",
"*.*.*.*.*.*.*.*.*.*.*.*.*.*.*.*.*.*.*.*.*.*.*.*.*.*.*.*.*.*.*.*.*.*.*.*.*.*.*.*.*.*.*.*.*.*.*.*.*.*.*.*.*.*.*.*.*.*.*.*.*.*.*.*.*.*.*.*.*.*.*.*.*.*.*.*.",
"*.*.*.*.*.*.*.*.*.*.*.*.*.*.*.*.*.*.*.*.*.*.*.*.*.*.*.*.*.*.*.*.*.*.*.*.*.*.*.*.*.*.*.*.*.*.*.*.*.*.*.*.*.*.*.*.*.*.*.*.*.*.*.*.*.*.*.*.*.*.*.*.*.*.*.*.",
"*.*.*.*.*.*.*.*.*.*.*.*.*.*.*.*.*.*.*.*.*.*.*.*.*.*.*.*.*.*.*.*.*.*.*.*.*.*.*.*.*.*.*.*.*.*.*.*.*.*.*.*.*.*.*.*.*.*.*.*.*.*.*.*.*.*.*.*.*.*.*.*.*.*.*.*.",
"*.*.*.*.*.*.*.*.*.*.*.*.*.*.*.*.*.*.*.*.*.*.*.*.*.*.*.*.*.*.*.*.*.*.*.*.*.*.*.*.*.*.*.*.*.*.*.*.*.*.*.*.*.*.*.*.*.*.*.*.*.*.*.*.*.*.*.*.*.*.*.*.*.*.*.*.",
"*.*.*.*.*.*.*.*.*.*.*.*.*.*.*.*.*.*.*.*.*.*.*.*.*.*.*.*.*.*.*.*.*.*.*.*.*.*.*.*.*.*.*.*.*.*.*.*.*.*.*.*.*.*.*.*.*.*.*.*.*.*.*.*.*.*.*.*.*.*.*.*.*.*.*.*.",
"*.*.*.*.*.*.*.*.*.*.*.*.*.*.*.*.*.*.*.*.*.*.*.*.*.*.*.*.*.*.*.*.*.*.*.*.*.*.*.*.*.*.*.*.*.*.*.*.*.*.*.*.*.*.*.*.*.*.*.*.*.*.*.*.*.*.*.*.*.*.*.*.*.*.*.*.",
"*.*.*.*.*.*.*.*.*.*.*.*.*.*.*.*.*.*.*.*.*.*.*.*.&.#.&.&.*.#.&.*.&.&.#.&.*.*.&.*.*.*.*.*.*.&.&.*.*.*.*.*.*.*.*.*.*.*.*.*.*.*.*.*.*.*.*.*.*.*.*.*.*.*.*.*.",
"*.*.*.*.*.*.*.*.*.*.*.*.*.*.*.*.*.*.*.*.*.*.*.*.&.*.*.*.*.&.&.#.*.*.*.*.*.*.*.&.&.&.&.*.*.&.*.*.*.*.*.*.*.*.*.*.*.*.*.*.*.*.*.*.*.*.*.*.*.*.*.*.*.*.*.*.",
"*.*.*.*.*.*.*.*.*.*.*.*.*.*.*.*.*.*.*.*.*.*.*.*.*.&.&.*.#.*.*.&.*.*.&.#.&.7.#.O.#.*.*.*.*.*.&.&.*.*.*.*.*.*.*.*.*.*.*.*.*.*.*.*.*.*.*.*.*.*.*.*.*.*.*.*.",
"*.*.*.*.*.*.*.*.*.*.*.*.*.*.*.*.*.*.*.*.*.*.*.*.*.*.#.*.&.7.#.#.&.#.*.*.*.#.*.7.&.&.&.&.&.*.*.*.*.*.*.*.*.*.*.*.*.*.*.*.*.*.*.*.*.*.*.*.*.*.*.*.*.*.*.*.",
"*.*.*.*.*.*.*.*.*.*.*.*.*.*.*.*.*.*.*.*.*.*.*.*.*.&.*.*.*.*.&.&.&.&.&.&.&.7.7.#.*.*.*.*.*.*.*.*.*.*.*.*.*.*.*.*.*.*.*.*.*.*.*.*.*.*.*.*.*.*.*.*.*.*.*.*.",
"*.*.*.*.*.*.*.*.*.*.*.*.*.*.*.*.*.*.*.*.*.*.*.*.&.&.&.&.#.X.r.X...........o.....*.#.#.*.&.*.*.&.*.*.*.*.*.*.*.*.*.*.*.*.*.*.*.*.*.*.*.*.*.*.*.*.*.*.*.*.",
"*.*.*.*.*.*.*.*.*.*.*.*.*.*.*.*.*.*.*.*.*.*.*.*.&.#.#.&.r.&.r.A * % % * * % # u r.&.*.&.&.*.*.*.*.*.*.*.*.*.*.*.*.*.*.*.*.*.*.*.*.*.*.*.*.*.*.*.*.*.*.*.",
"*.*.*.*.*.*.*.*.*.*.*.*.*.*.*.*.*.*.*.*.*.*.*.*.*.*.*.#.X...7.B @ % % + % & . e O.X.X.O.#.*.*.&.*.*.*.*.*.*.*.*.*.*.*.*.*.*.*.*.*.*.*.*.*.*.*.*.*.*.*.*.",
"*.*.*.*.*.*.*.*.*.*.*.*.*.*.*.*.*.*.&.*.&.#.&.&.*.#.V.F ; - % i >.;.>.;.>.;.d.S - - $ a 7.&.#.&.*.*.*.*.&.*.&.*.*.&.&.#.&.&.O.*.*.*.*.*.*.*.*.*.*.*.*.*.",
"*.*.*.*.*.*.*.*.*.*.*.*.*.*.*.*.*.*.*.*.&.*.*.*.*.&...m O .   0 W.W.W.W.W.d.W._ O .   7 ....&.#.*.&.*.&.#.*.O.O.*.#.&.&.#.#.&.7.*.*.*.*.*.*.*.*.*.*.*.*.",
"*.*.*.*.*.*.*.*.*.*.*.*.*.*.*.*.*.&.&.*.&.&.*.*.i.V # i ;.] } | W.W.W.W.W.W.W.d.] ]  .S * 9 &.*.&.*.#.&.&.*.7.7.*.*.*.*.*.&.&.#.*.*.*.*.*.*.*.*.*.*.*.*.",
"*.*.*.*.*.*.*.*.*.*.*.*.*.*.*.*.*.*.*.*.*.*.#.*.i.V o 7 W.W.j.W.W.W.W.W.W.W.W.W.W.W.G.J   1 &.*.#.*.&.o.*.*.o.o.*.*.*.&.&.&.#.*.*.*.*.*.*.*.*.*.*.*.*.*.",
"*.*.*.*.*.*.*.*.*.*.*.*.*.*.*.*.*.*.*.&.*.*.&.*.V.V o 0 W.W.V.W.W.W.W.W.W.W.W.W.V.d.W._   < r.*.*.O.p.P 5 > , 1 ; a @.u.O.#.&.&.*.*.*.*.*.*.*.*.*.*.*.*.",
"*.*.*.*.*.*.*.*.*.*.*.*.*.*.*.*.*.*.*.&.&.#.r...3.V o 0 m.W.W.W.W.W.W.W.W.W.W.W.W.n.W.H . 2 o.*.*.*.7.F O         , X.o.9.*.*.#.*.*.*.*.*.*.*.*.*.*.*.*.",
"*.*.*.*.*.*.*.*.*.*.*.*.*.*.*.*.*.*.*.*.*.o.r.L = d _ ] W.W.W.W.W.W.W.W.W.W.W.W.W.W.W.d._ V ; i p.G = i _ _ H _ ` M ; q o.*.*.&.*.*.*.*.*.*.*.*.*.*.*.*.",
"*.*.*.*.*.*.*.*.*.*.*.*.*.*.*.*.&.r.&.&.r.#.u.V   0 W.G.W.G.W.W.W.W.W.W.W.W.W.W.W.W.W.W.W.] . 2 V.G   7 G.W.W.W.G.} o < 7.7.*.*.*.*.*.*.*.*.*.*.*.*.*.*.",
"*.*.*.*.*.*.*.*.#.*.*.+.*.#.=.A 2 2 2 3 , f V.A   w G.W.G.2.W.G.W.W.W.W.W.W.W.W.G.j.h.W.j.,.} N 2 i ] ] d.W.d.W.G.w.} D 7 s *.*.*.&.*.*.&.*.*.*.*.*.*.*.",
"*.*.*.*.*.*.*.*.&.*.*.@.7.O.e.V   o       9 W.Z o i W.w.W.W.V.W.W.W.W.W.W.W.W.W.m.W.W.V.W.W.p.] . , d.W.W.W.W.W.G.V.W.| . , %.*.#.&.*.*.&.*.*.*.*.*.*.*.",
"*.*.*.*.*.*.*.*.*.*.&.@.3.V & h ] H _ _ { b - d ` H ^ ^ W.W.V.W.W.W.W.W.W.W.W.W.W.W.W.W.2.d.T T H _ W.W.W.W.W.W.W.W.n.d.` N 2 i #.&.*.*.&.*.*.*.*.*.*.*.",
"*.*.*.*.*.*.*.*.-.*.#.@.W.n o p G.W.W.W.W.H   8 W.w.I ( e.W.W.W.W.W.W.W.W.W.W.W.G.W.G.W.G.p.Y E W.W.W.W.W.W.W.W.G.W.W.2.W...  % #.&.*.*.&.*.&.*.*.*.*.*.",
"*.*.*.*.*.*.*.*.*.O.r.A 5 g z C W.G.G.d.W.d.H ` W.V.V.@.T ) 2.h.W.W.W.W.W.W.W.W.W.W.G.u.Q ! u.w.d.W.W.W.W.W.W.W.V.W.W.d./ c   : #.&.*.*.&.*.&.*.*.*.*.*.",
"*.*.*.*.*.*.*.*.*.7.r.B   4 ) ( V.V.G.G.W.W.W.j.G.V.W.V.Y T V.W.W.W.W.W.W.W.W.W.G.W.V.i.U T W.2.W.W.W.W.W.W.W.W.W.m.W.i.E v X : #.&.*.*.&.*.*.*.*.*.*.*.",
"*.*.*.*.*.*.*.*.#.*.p.B   9 ^ E ^ ~ W.G.G.W.d.W.W.W.G.7.I W ^ Q W.W.W.W.W.W.W.W.j.u.! Q Y ( n.W.W.W.W.W.W.W.W.W.G.W.Q ^ ( v o - #.&.*.*.&.*.*.*.*.*.*.*.",
"*.*.*.*.*.*.*.*.&.o.p.n   9 ^ I U ^ V.G.G.W.W.W.V.W.2.9.Y U U ^ W.W.W.W.W.W.W.W.V.n.Y U U E V.2.W.W.W.W.W.W.W.W.W.e.R U T c o - #.&.*.*.&.*.*.*.*.*.*.*.",
"*.*.*.*.*.*.*.*.*.#.r.m   6 ^ U Y T ^ ^ ^ ^ ^ ^ ^ ^ ^ ^ Y Y Y Y ^ ^ ^ ^ ^ ^ ^ ^ ^ ^ Y Y Y Y ^ ^ ^ ^ ^ ^ ^ ^ ^ ^ T W U U E x o - *.*.*.*.*.*.*.*.*.*.*.*.",
"*.*.*.*.*.*.*.*.*.#.p.n   9 ) ^ W W W ( ( ( ( W W ( ( W W W W W W W W W ( W W W ( W W W W W W ( ( ( ( ( ( ( ( ( ) ^ ^ ^ ( K o - *.*.*.*.*.*.*.*.*.*.*.*.",
"*.*.*.*.*.*.*.*.*.*.&...S j q y y y y y t t t t t t t t y y y y t t t t t t t t t t y y y y t t t t t t t t t t 9 9 y r 6 f B Z *.*.*.*.*.*.*.*.*.*.*.*.",
"*.*.*.*.*.*.*.*.&.#.*.#.W.b o o                                                                                 o         - j.w.*.*.*.*.*.*.*.*.*.*.*.*.",
"*.*.*.*.*.*.*.*.%.&.&.*.&.[ k k l l l l l l l l l l l n l n n n l l l l l l l l n l l l l l l n l l l l l l l l l l l n l B *.*.*.*.*.*.*.*.*.*.*.*.*.*.",
"*.*.*.*.*.*.*.*.%.*.*.#.&.r.p.V.V.p.p.p.p.p.p.p.p.p.V.V.V.V.V.V.p.p.p.p.p.V.p.p.V.V.V.V.V.V.V.V.p.p.p.p.p.p.p.p.e.e.j.<.e.p.#.*.*.*.*.*.*.*.*.*.*.*.*.*.",
"*.*.*.*.*.*.*.*.#.7.*.*.*.*.#.#.#.#.#.#.#.#.#.#.#.#.#.#.#.o.#.#.#.#.#.#.#.#.#.#.#.#.#.#.#.#.#.#.#.#.#.#.#.#.#.#.*.O.O.O.O.4.*.4.*.*.*.*.*.*.*.*.*.*.*.*.",
"*.*.*.*.*.*.*.*.*.#.3.*.&.*.7.*.*.*.*.*.*.*.*.*.*.*.*.*.*.*.*.*.*.*.*.*.*.*.*.*.*.*.*.*.*.*.*.*.*.*.*.*.*.*.*.*.*.&.*.*.*.*.*.&.*.*.*.*.*.*.*.*.*.*.*.*.",
"*.*.*.*.*.*.*.*.*.*.*.*.*.*.*.*.*.*.*.*.*.*.*.*.*.*.*.*.*.*.*.*.*.*.*.*.*.*.*.*.*.*.*.*.*.*.*.*.*.*.*.*.*.*.*.*.*.*.*.*.*.*.*.*.*.*.*.*.*.*.*.*.*.*.*.*.",
"*.*.*.*.*.*.*.*.*.*.*.*.*.*.*.*.*.*.*.*.*.*.*.*.*.*.*.*.*.*.*.*.*.*.*.*.*.*.*.*.*.*.*.*.*.*.*.*.*.*.*.*.*.*.*.*.*.*.*.*.*.*.*.*.*.*.*.*.*.*.*.*.*.*.*.*.",
"*.*.*.*.*.*.*.*.*.*.*.*.*.*.*.*.*.*.*.*.*.*.*.*.*.*.*.*.*.*.*.*.*.*.*.*.*.*.*.*.*.*.*.*.*.*.*.*.*.*.*.*.*.*.*.*.*.*.*.*.*.*.*.*.*.*.*.*.*.*.*.*.*.*.*.*.",
"*.*.*.*.*.*.*.*.*.*.*.*.*.*.*.*.*.*.*.*.*.*.*.*.*.*.*.*.*.*.*.*.*.*.*.*.*.*.*.*.*.*.*.*.*.*.*.*.*.*.*.*.*.*.*.*.*.*.*.*.*.*.*.*.*.*.*.*.*.*.*.*.*.*.*.*.",
"*.*.*.*.*.*.*.*.*.*.*.*.*.*.*.*.*.*.*.*.*.*.*.*.*.*.*.*.*.*.*.*.*.*.*.*.*.*.*.*.*.*.*.*.*.*.*.*.*.*.*.*.*.*.*.*.*.*.*.*.*.*.*.*.*.*.*.*.*.*.*.*.*.*.*.*.",
"*.*.*.*.*.*.*.*.*.*.*.*.*.*.*.*.*.*.*.*.*.*.*.*.*.*.*.*.*.*.*.*.*.*.*.*.*.*.*.*.*.*.*.*.*.*.*.*.*.*.*.*.*.*.*.*.*.*.*.*.*.*.*.*.*.*.*.*.*.*.*.*.*.*.*.*.",
"*.*.*.*.*.*.*.*.*.*.*.*.*.*.*.*.*.*.*.*.*.*.*.*.*.*.*.*.*.*.*.*.*.*.*.*.*.*.*.*.*.*.*.*.*.*.*.*.*.*.*.*.*.*.*.*.*.*.*.*.*.*.*.*.*.*.*.*.*.*.*.*.*.*.*.*.",
"*.*.*.*.*.*.*.*.*.*.*.*.*.*.*.*.*.*.*.*.*.*.*.*.*.*.*.*.*.*.*.*.*.*.*.*.*.*.*.*.*.*.*.*.*.*.*.*.*.*.*.*.*.*.*.*.*.*.*.*.*.*.*.*.*.*.*.*.*.*.*.*.*.*.*.*.",
"*.*.*.*.*.*.*.*.*.*.*.*.*.*.*.*.*.*.*.*.*.*.*.*.*.*.*.*.*.*.*.*.*.*.*.*.*.*.*.*.*.*.*.*.*.*.*.*.*.*.*.*.*.*.*.*.*.*.*.*.*.*.*.*.*.*.*.*.*.*.*.*.*.*.*.*.",
"*.*.*.*.*.*.*.*.*.*.*.*.*.*.*.*.*.*.*.*.*.*.*.*.*.*.*.*.*.*.*.*.*.*.*.*.*.*.*.*.*.*.*.*.*.*.*.*.*.*.*.*.*.*.*.*.*.*.*.*.*.*.*.*.*.*.*.*.*.*.*.*.*.*.*.*.",
"*.*.*.*.*.*.*.*.*.*.*.*.*.*.*.*.*.*.*.*.*.*.*.*.*.*.*.*.*.*.*.*.*.*.*.*.*.*.*.*.*.*.*.*.*.*.*.*.*.*.*.*.*.*.*.*.*.*.*.*.*.*.*.*.*.*.*.*.*.*.*.*.*.*.*.*.",
"*.*.*.*.*.*.*.*.*.*.*.*.*.*.*.*.*.*.*.*.*.*.*.*.*.*.*.*.*.*.*.*.*.*.*.*.*.*.*.*.*.*.*.*.*.*.*.*.*.*.*.*.*.*.*.*.*.*.*.*.*.*.*.*.*.*.*.*.*.*.*.*.*.*.*.*.",
"*.*.*.*.*.*.*.*.*.*.*.*.*.*.*.*.*.*.*.*.*.*.*.*.*.*.*.*.*.*.*.*.*.*.*.*.*.*.*.*.*.*.*.*.*.*.*.*.*.*.*.*.*.*.*.*.*.*.*.*.*.*.*.*.*.*.*.*.*.*.*.*.*.*.*.*.",
"*.*.*.*.*.*.*.*.*.*.*.*.*.*.*.*.*.*.*.*.*.*.*.*.*.*.*.*.*.*.*.*.*.*.*.*.*.*.*.*.*.*.*.*.*.*.*.*.*.*.*.*.*.*.*.*.*.*.*.*.*.*.*.*.*.*.*.*.*.*.*.*.*.*.*.*.",
"*.*.*.*.*.*.*.*.*.*.*.*.*.*.*.*.*.*.*.*.*.*.*.*.*.*.*.*.*.*.*.*.*.*.*.*.*.*.*.*.*.*.*.*.*.*.*.*.*.*.*.*.*.*.*.*.*.*.*.*.*.*.*.*.*.*.*.*.*.*.*.*.*.*.*.*.",
"*.*.*.*.*.*.*.*.*.*.*.*.*.*.*.*.*.*.*.*.*.*.*.*.*.*.*.*.*.*.*.*.*.*.*.*.*.*.*.*.*.*.*.*.*.*.*.*.*.*.*.*.*.*.*.*.*.*.*.*.*.*.*.*.*.*.*.*.*.*.*.*.*.*.*.*."
};
